<?xml version="1.0" encoding="utf-8"?>
<!-- Generator: Adobe Illustrator 18.0.0, SVG Export Plug-In . SVG Version: 6.00 Build 0)  -->
<!DOCTYPE svg PUBLIC "-//W3C//DTD SVG 1.1//EN" "http://www.w3.org/Graphics/SVG/1.1/DTD/svg11.dtd">
<svg version="1.1" id="back-buildings" xmlns="http://www.w3.org/2000/svg" xmlns:xlink="http://www.w3.org/1999/xlink" x="0px"
	 y="0px" viewBox="0 0 4823.5 1407.9" enable-background="new 0 0 4823.5 1407.9" xml:space="preserve">
<polygon fill="#75888E" points="2771.5,856.5 2771.5,839.5 2521.5,839.5 2521.5,871.5 2319.5,871.5 2319.5,856.5 2062.5,856.5 
	2062.5,888.5 1977.5,888.5 1977.5,882.5 1741.5,882.5 1741.5,1185.5 3004.5,1185.5 3004.5,856.5 "/>
<polygon fill="#75888E" points="3998.5,856.5 3998.5,839.5 3748.5,839.5 3748.5,871.5 3546.5,871.5 3546.5,856.5 3289.5,856.5 
	3289.5,888.5 3204.5,888.5 3204.5,882.5 2968.5,882.5 2968.5,1185.5 4231.5,1185.5 4231.5,856.5 "/>
<polygon fill="#75888E" points="4590.5,856.5 4590.5,839.5 4340.5,839.5 4340.5,871.5 4138.5,871.5 4138.5,856.5 3881.5,856.5 
	3881.5,888.5 3796.5,888.5 3796.5,882.5 3560.5,882.5 3560.5,1185.5 4823.5,1185.5 4823.5,856.5 "/>
<polygon fill="#75888E" points="1636.5,856.5 1636.5,839.5 1386.5,839.5 1386.5,871.5 1184.5,871.5 1184.5,856.5 927.5,856.5 
	927.5,888.5 842.5,888.5 842.5,882.5 606.5,882.5 606.5,1185.5 1869.5,1185.5 1869.5,856.5 "/>
<polygon fill="#75888E" points="1034.5,856.5 1034.5,839.5 784.5,839.5 784.5,871.5 582.5,871.5 582.5,856.5 325.5,856.5 
	325.5,888.5 240.5,888.5 240.5,882.5 4.5,882.5 4.5,1185.5 1267.5,1185.5 1267.5,856.5 "/>
</svg>
