<?xml version="1.0" encoding="utf-8"?>
<!-- Generator: Adobe Illustrator 18.0.0, SVG Export Plug-In . SVG Version: 6.00 Build 0)  -->
<!DOCTYPE svg PUBLIC "-//W3C//DTD SVG 1.1//EN" "http://www.w3.org/Graphics/SVG/1.1/DTD/svg11.dtd">
<svg version="1.1" id="Layer_1" xmlns="http://www.w3.org/2000/svg" xmlns:xlink="http://www.w3.org/1999/xlink" x="0px" y="0px"
	 viewBox="0 0 123.7 100" enable-background="new 0 0 123.7 100" xml:space="preserve">
<path fill="#FFFFFF" d="M113.7,100H10c-5.5,0-10-4.5-10-10v0c0-5.5,4.5-10,10-10h103.7c5.5,0,10,4.5,10,10v0
	C123.7,95.5,119.2,100,113.7,100z"/>
<path fill="#FFFFFF" d="M113.7,60H10C4.5,60,0,55.5,0,50v0c0-5.5,4.5-10,10-10h103.7c5.5,0,10,4.5,10,10v0
	C123.7,55.5,119.2,60,113.7,60z"/>
<path fill="#FFFFFF" d="M113.7,20H10C4.5,20,0,15.5,0,10v0C0,4.5,4.5,0,10,0l103.7,0c5.5,0,10,4.5,10,10v0
	C123.7,15.5,119.2,20,113.7,20z"/>
</svg>
