<?xml version="1.0" encoding="utf-8"?>
<!-- Generator: Adobe Illustrator 18.0.0, SVG Export Plug-In . SVG Version: 6.00 Build 0)  -->
<!DOCTYPE svg PUBLIC "-//W3C//DTD SVG 1.1//EN" "http://www.w3.org/Graphics/SVG/1.1/DTD/svg11.dtd">
<svg version="1.1" id="Layer_1" xmlns="http://www.w3.org/2000/svg" xmlns:xlink="http://www.w3.org/1999/xlink" x="0px" y="0px"
	 viewBox="0 0 960 560" enable-background="new 0 0 960 560" xml:space="preserve">
<path fill="#FFFFFF" d="M657.6,542.4l-440-440c-23.3-23.3-23.3-61.5,0-84.8l0,0c23.3-23.3,61.5-23.3,84.8,0l440,439.9
	c23.3,23.3,23.3,61.5,0,84.8l0,0C719.1,565.7,680.9,565.7,657.6,542.4z"/>
<path fill="#FFFFFF" d="M742.4,102.4l-440,440c-23.3,23.3-61.5,23.3-84.8,0l0,0c-23.3-23.3-23.3-61.5,0-84.8l440-440.1
	c23.3-23.3,61.5-23.3,84.8,0l0,0C765.8,40.9,765.8,79.1,742.4,102.4z"/>
</svg>
