<?xml version="1.0" encoding="utf-8"?>
<!-- Generator: Adobe Illustrator 18.0.0, SVG Export Plug-In . SVG Version: 6.00 Build 0)  -->
<!DOCTYPE svg PUBLIC "-//W3C//DTD SVG 1.1//EN" "http://www.w3.org/Graphics/SVG/1.1/DTD/svg11.dtd">
<svg version="1.1" id="Layer_1" xmlns="http://www.w3.org/2000/svg" xmlns:xlink="http://www.w3.org/1999/xlink" x="0px" y="0px"
	 viewBox="0 0 200 200" enable-background="new 0 0 200 200" xml:space="preserve">
<g>
	<g>
		<path fill="#111113" d="M100,6c51.8,0,94,42.2,94,94s-42.2,94-94,94c-51.8,0-94-42.2-94-94S48.2,6,100,6 M100,0
			C44.8,0,0,44.8,0,100s44.8,100,100,100c55.2,0,100-44.8,100-100S155.2,0,100,0L100,0z"/>
	</g>
</g>
<g>
	<path fill="#824711" d="M142.3,91.8c-0.1,0-0.1,0-0.2,0c3.4-6.1,5.4-13.1,5.4-20.5c0-24.6-21.4-44.5-47.9-44.5S51.8,46.7,51.8,71.3
		c0,7.4,1.9,14.4,5.4,20.5c-0.1,0-0.1,0-0.2,0c-3.1,0-4.9,4.3-4.9,11.6c0,6.3,4,11.6,7.3,11.6c0.2,0,0.6,0,0.8-0.1
		c2.3,20.3,10.5,32.8,19.5,40.2v18.6h40v-18.4c8-7.5,17.4-20,19.8-40.5c0.2,0.1,0.3,0.1,0.6,0.1c3.3,0,7.2-5.4,7.2-11.6
		C147.2,96.1,145.3,91.8,142.3,91.8z"/>
	<g>
		<path fill="#EB0029" d="M100,195.3c26.4,0,44.6-7.2,61.6-24.7c-15.2-14.7-34.2-24.3-62-24.3c-27.6,0-46.4,9.4-61.6,24
			C55,187.9,73.4,195.3,100,195.3z"/>
		<path fill="#111113" d="M100,197.3c-27.2,0-46.2-7.7-63.5-25.7l-1.4-1.5l1.5-1.4c17.5-16.7,37.5-24.5,63.1-24.5
			c25.8,0,46,7.9,63.4,24.9l1.5,1.4l-1.4,1.5C145.9,189.7,127,197.3,100,197.3z M41,170.2c16.2,16.3,33.5,23,59,23
			c25.4,0,42.5-6.6,58.7-22.6c-16.3-15.2-35.1-22.3-59.1-22.3C76,148.3,57.3,155.2,41,170.2z"/>
	</g>
	<g>
		<rect x="79.6" y="149" fill="#824711" width="39.8" height="24.7"/>
	</g>
	<g>
		<path fill="#111113" d="M114.8,185.2c0,8.5-30.8,8.5-30.8,0s6.9-15.4,15.4-15.4S114.8,176.7,114.8,185.2z"/>
		<path fill="#111113" d="M99.4,193.2c-8.5,0-17-2.5-17-8c0-9.4,7.6-17,17-17s17,7.6,17,17C116.4,190.8,107.9,193.2,99.4,193.2z
			 M99.4,171.4c-7.6,0-13.8,6.2-13.8,13.8c0,2.6,6.2,4.8,13.8,4.8c7.6,0,13.8-2.1,13.8-4.8C113.2,177.6,107,171.4,99.4,171.4z"/>
	</g>
	<g>
		<path fill="#EB0029" d="M91.7,168.7l-6.3,20.3l-20.7-27.3c-2.7-3.6-2.8-9-0.2-12.7l4-5.8L91.7,168.7z"/>
		<path fill="#111113" d="M86,192.5l-22.6-29.8c-3.2-4.1-3.3-10.3-0.3-14.6l5.2-7.5l25.3,27.6L86,192.5z M68.7,145.9l-2.9,4.1
			c-2.2,3.1-2.1,7.8,0.2,10.8l18.8,24.8l5.1-16.4L68.7,145.9z"/>
	</g>
	<g>
		<path fill="#EB0029" d="M107.8,168.7l6.3,20.3l20.7-27.3c2.7-3.6,2.8-9,0.2-12.7l-4-5.8L107.8,168.7z"/>
		<path fill="#111113" d="M113.5,192.5l-7.5-24.2l25.3-27.6l5.2,7.5c3,4.3,2.9,10.4-0.3,14.6L113.5,192.5z M109.7,169.1l5.1,16.4
			l18.8-24.8c2.3-3,2.4-7.6,0.2-10.8l-2.9-4.1L109.7,169.1z"/>
	</g>
	<g>
		<path fill="#824711" d="M115,134.6c-3.3-4.8-9.2-7.5-15.2-7.4c-6,0-11.9,2.6-15.2,7.4c-0.9,1.3-1.4,2.9-1.4,4.5
			c-0.3,7.1,2.4,11.3,5.8,13.8c1.5,1.1,3.5,1.3,5.2,0.4l3.1-1.5l-4.7-4c-0.9-0.8-0.2-2.2,1-2c3.9,0.5,7.7,0.5,11.3,0
			c1.2-0.1,1.9,1.2,1,2l-4.3,3.7l3.8,1.9c1.7,0.8,3.7,0.7,5.2-0.4c3.3-2.5,6.1-6.7,5.8-13.8C116.4,137.4,115.9,135.9,115,134.6z"/>
	</g>
	<g>
		<path fill="#824711" d="M59.7,96c-0.7-1.5-1.6-2.4-2.5-2.4c-1.8,0-3.1,4.1-3.1,9.8c0,5.7,3.6,9.8,5.5,9.8c0.2,0,0.3,0,0.5-0.1
			c-0.3-3-0.4-6.1-0.4-9.5C59.6,101,59.6,98.4,59.7,96z"/>
	</g>
	<g>
		<path fill="#FFFFFF" d="M129.1,88.2c-0.4,0-0.7,0-1.1,0.1l-19.1,2.8c-2.3,0.3-3.9,2.2-3.9,4.5v2.9c0,6,4.9,10.8,11,10.8h9.5
			c6,0,11-4.9,11-10.8v-3.1C136.4,91.4,133.1,88.2,129.1,88.2z"/>
	</g>
	<g>
		<path fill="#824711" d="M70.6,86.1c0.5,0,0.9,0,1.4,0.1L91,89c1.6,0.2,3.1,1.1,4.1,2.3h9.3c1-1.2,2.5-2,4.1-2.3l19.1-2.8
			c0.5-0.1,0.9-0.1,1.4-0.1c3.1,0,5.9,1.5,7.6,3.9c-1-11.5-3.3-20.1-7.2-26.4c-2.2-3.6-5-6.5-8.4-8.7c-5.7-2.8-13-4.2-22.4-4.2
			c-9.1,0-16.2,1.3-21.6,4c-3.3,2.2-6,5.2-8,8.9c-2.5,4.4-4.2,10-5.3,17.1c-0.4,2.9-0.8,6.1-1,9.6C64.5,87.7,67.3,86.1,70.6,86.1z
			 M106.8,82.6c0-0.3,0.2-0.5,0.5-0.5l21-2.3c0.2,0,0.3,0,0.4,0.1l6.3,5.3c0.4,0.4,0,1-0.5,0.8l-6.2-1.5c-0.1,0-0.1,0-0.2,0
			l-20.7,2.4c-0.3,0-0.6-0.2-0.6-0.5V82.6z M63.6,85.2l6.3-5.3c0.1-0.1,0.3-0.1,0.4-0.1l21,2.3c0.3,0,0.5,0.2,0.5,0.5v3.8
			c0,0.3-0.3,0.5-0.6,0.5l-20.7-2.4c-0.1,0-0.1,0-0.2,0L64,86.1C63.5,86.2,63.1,85.6,63.6,85.2z"/>
	</g>
	<g>
		<path fill="#FFFFFF" d="M71.7,88.2c-0.4-0.1-0.7-0.1-1.1-0.1c-4,0-7.3,3.3-7.3,7.2v3.1c0,6,4.9,10.8,11,10.8h9.5
			c6,0,11-4.9,11-10.8v-2.9c0-2.3-1.7-4.2-3.9-4.5L71.7,88.2z"/>
	</g>
	<g>
		<path fill="#824711" d="M139.9,96c0.1,2.5,0.1,5,0.1,7.6c0,3.3-0.2,6.5-0.4,9.5c0.1,0.1,0.3,0.1,0.5,0.1c1.9,0,5.5-4.1,5.5-9.8
			c0-5.7-1.3-9.8-3.1-9.8C141.6,93.6,140.7,94.5,139.9,96z"/>
	</g>
	<g>
		<path fill="#824711" d="M136.7,104.9c-2.3,3.9-6.5,6.5-11.3,6.5h-9.5c-7.2,0-13-5.8-13-12.9v-0.8c-2.1-1.4-4.2-1.5-6.1-0.1v0.9
			c0,7.1-5.9,12.9-13,12.9h-9.5c-4.8,0-9.1-2.6-11.3-6.5c0,2.3,0,4.3-0.2,6c0.9,11.7,3.8,21.8,8.8,30.2c2.9,4.8,6.4,8.9,10.4,12.4
			c-0.7-2.2-1.1-4.8-1-7.9v-8.5c0-4.5,1.9-8.7,5.2-11.4c3.8-3,8.7-4.6,13.6-4.6c5,0,9.9,1.6,13.6,4.6c3.3,2.6,5.2,6.9,5.2,11.4v8.5
			c0.1,2.9-0.2,5.3-0.8,7.4c4-3.5,7.4-7.6,10.2-12.2c5-8.3,8-18.4,8.9-29.9C136.7,109.2,136.7,107.2,136.7,104.9z M96.8,119.5
			c-0.6,0.1-1.5,0.4-2.5,1c0,0-3.3,0.9-1.9-1.6c0,0,1.7-1.5,4.5-0.1C97.3,119,97.2,119.5,96.8,119.5z M104.2,120.6
			c-1-0.7-1.8-0.9-2.5-1c-0.4-0.1-0.5-0.5-0.1-0.7c2.9-1.4,4.5,0.1,4.5,0.1C107.5,121.5,104.2,120.6,104.2,120.6z"/>
	</g>
	<g>
		<path fill="#111113" d="M99.8,26.8c-26.4,0-47.9,19.9-47.9,44.5c0,7.4,1.9,14.4,5.4,20.5c-0.1,0-0.1,0-0.2,0
			c-3.1,0-4.9,4.3-4.9,11.6c0,6.3,4,11.6,7.3,11.6c0.2,0,0.4,0,0.7-0.1c2.9,25.7,15.7,38.7,26,45.2c5.6,5.2,13.7,5.2,13.7,5.2
			s9,0,14.5-6c10.1-6.8,22.2-19.9,25.1-44.3c0.2,0.1,0.4,0.1,0.7,0.1c3.3,0,7.3-5.4,7.3-11.6c0-7.3-1.8-11.6-4.9-11.6
			c-0.1,0-0.1,0-0.2,0c3.4-6.1,5.4-13.1,5.4-20.5C147.7,46.7,126.2,26.8,99.8,26.8z M59.5,113.2c-1.9,0-5.5-4.1-5.5-9.8
			c0-5.7,1.3-9.8,3.1-9.8c0.9,0,1.8,0.9,2.5,2.4c-0.1,2.5-0.1,5-0.1,7.6c0,3.3,0.2,6.5,0.4,9.5C59.9,113.2,59.7,113.2,59.5,113.2z
			 M63.8,80.6c1.1-7.1,2.8-12.6,5.3-17.1c2.1-3.7,4.7-6.6,8-8.9c5.4-2.7,12.5-4,21.6-4c9.4,0,16.7,1.4,22.4,4.2
			c3.4,2.2,6.1,5.1,8.4,8.7c3.9,6.3,6.2,14.8,7.2,26.4c-1.7-2.4-4.5-3.9-7.6-3.9c-0.5,0-0.9,0-1.4,0.1L108.6,89
			c-1.6,0.2-3.1,1.1-4.1,2.3h-9.3c-1-1.2-2.5-2-4.1-2.3L72,86.2c-0.5-0.1-0.9-0.1-1.4-0.1c-3.2,0-6.1,1.6-7.8,4.1
			C63,86.6,63.4,83.5,63.8,80.6z M136.4,95.4v3.1c0,6-4.9,10.8-11,10.8h-9.5c-6,0-11-4.9-11-10.8v-2.9c0-2.3,1.7-4.2,3.9-4.5
			l19.1-2.8c0.4-0.1,0.7-0.1,1.1-0.1C133.1,88.2,136.4,91.4,136.4,95.4z M94.7,95.6v2.9c0,6-4.9,10.8-11,10.8h-9.5
			c-6,0-11-4.9-11-10.8v-3.1c0-4,3.3-7.2,7.3-7.2c0.4,0,0.7,0,1.1,0.1l19.1,2.8C93,91.4,94.7,93.3,94.7,95.6z M110.6,152.9
			c-1.5,1.1-3.5,1.3-5.2,0.4l-3.8-1.9l-1.5,1.2c-0.5,0.4-1.2,0.4-1.7,0l-1.1-0.9l-3.1,1.5c-1.7,0.8-3.7,0.7-5.2-0.4
			c-3.3-2.5-6.1-6.7-5.8-13.8c0-1.6,0.5-3.2,1.4-4.5c3.3-4.8,9.2-7.5,15.2-7.4c6,0,11.9,2.6,15.2,7.4c0.9,1.3,1.4,2.9,1.4,4.5
			C116.7,146.2,113.9,150.4,110.6,152.9z M128.1,140.7c-2.8,4.6-6.2,8.7-10.2,12.2c0.6-2.1,0.9-4.5,0.8-7.4v-8.5
			c0-4.5-1.9-8.7-5.2-11.4c-3.8-3-8.7-4.6-13.6-4.6c-5,0-9.9,1.6-13.6,4.6c-3.3,2.6-5.2,6.9-5.2,11.4v8.5c-0.1,3.1,0.2,5.7,1,7.9
			c-4.1-3.5-7.6-7.6-10.4-12.4c-5-8.3-7.9-18.5-8.8-30.2c0.2-1.6,0.2-3.7,0.2-6c2.3,3.9,6.5,6.5,11.3,6.5h9.5c7.2,0,13-5.8,13-12.9
			v-0.9c2-1.4,4-1.3,6.1,0.1v0.8c0,7.1,5.9,12.9,13,12.9h9.5c4.8,0,9.1-2.6,11.3-6.5c0,2.3,0,4.3,0.2,5.9
			C136.1,122.4,133.1,132.4,128.1,140.7z M142.4,93.6c1.8,0,3.1,4.1,3.1,9.8c0,5.7-3.6,9.8-5.5,9.8c-0.2,0-0.3,0-0.5-0.1
			c0.3-3,0.4-6.1,0.4-9.5c0-2.6,0-5.1-0.1-7.6C140.7,94.5,141.6,93.6,142.4,93.6z"/>
	</g>
	<g>
		<path fill="#111113" d="M64,86.1l6.2-1.5c0.1,0,0.1,0,0.2,0l20.7,2.4c0.3,0,0.6-0.2,0.6-0.5v-3.8c0-0.3-0.2-0.5-0.5-0.5l-21-2.3
			c-0.2,0-0.3,0-0.4,0.1l-6.3,5.3C63.1,85.6,63.5,86.2,64,86.1z"/>
	</g>
	<g>
		<path fill="#111113" d="M107.4,86.9l20.7-2.4c0.1,0,0.1,0,0.2,0l6.2,1.5c0.5,0.1,0.9-0.5,0.5-0.8l-6.3-5.3
			c-0.1-0.1-0.3-0.1-0.4-0.1l-21,2.3c-0.3,0-0.5,0.2-0.5,0.5v3.8C106.8,86.7,107.1,87,107.4,86.9z"/>
	</g>
	<g>
		<path fill="#111113" d="M104.9,145.8c-3.6,0.4-7.3,0.4-11.3,0c-1.2-0.1-1.9,1.2-1,2l4.7,4l1-0.5c0.9-0.5,1.9-0.5,2.9,0l0.4,0.2
			l4.3-3.7C106.8,147,106.1,145.6,104.9,145.8z"/>
	</g>
	<g>
		<path fill="#111113" d="M98.4,151.3l-1,0.5l1.1,0.9c0.5,0.4,1.2,0.4,1.7,0l1.5-1.2l-0.4-0.2C100.3,150.8,99.3,150.8,98.4,151.3z"
			/>
	</g>
	<g>
		<path fill="#111113" d="M96.9,118.8c-2.9-1.4-4.5,0.1-4.5,0.1c-1.3,2.5,1.9,1.6,1.9,1.6c1-0.7,1.8-0.9,2.5-1
			C97.2,119.5,97.3,119,96.9,118.8z"/>
	</g>
	<g>
		<path fill="#111113" d="M101.6,118.8c-0.3,0.2-0.2,0.6,0.1,0.7c0.6,0.1,1.5,0.4,2.5,1c0,0,3.3,0.9,1.9-1.6
			C106.2,118.9,104.5,117.4,101.6,118.8z"/>
	</g>
	<g>
		<path fill="#111113" d="M87.9,181.2l-1.1,16.9c4.3,0.6,8.7,0.9,13.2,0.9c4.3,0,8.5-0.3,12.7-0.9l-1.3-17.4L87.9,181.2z"/>
	</g>
	<g>
		<path fill="#111113" d="M99.8,26.8c-26.4,0-47.9,19.9-47.9,44.5c0,7.4,1.9,14.4,5.4,20.5c-0.1,0-0.1,0-0.2,0
			c-3.1,0-4.9,4.3-4.9,11.6c0,6.3,4,11.6,7.3,11.6c0.2,0,0.4,0,0.7-0.1c2.9,25.7,15.7,38.7,26,45.2c5.6,5.2,13.7,5.2,13.7,5.2
			s9,0,14.5-6c10.1-6.8,22.2-19.9,25.1-44.3c0.2,0.1,0.4,0.1,0.7,0.1c3.3,0,7.3-5.4,7.3-11.6c0-7.3-1.8-11.6-4.9-11.6
			c-0.1,0-0.1,0-0.2,0c3.4-6.1,5.4-13.1,5.4-20.5C147.7,46.7,126.2,26.8,99.8,26.8z M59.5,113.2c-1.9,0-5.5-4.1-5.5-9.8
			c0-5.7,1.3-9.8,3.1-9.8c0.9,0,1.8,0.9,2.5,2.4c-0.1,2.5-0.1,5-0.1,7.6c0,3.3,0.2,6.5,0.4,9.5C59.9,113.2,59.7,113.2,59.5,113.2z
			 M63.8,80.6c1.1-7.1,2.8-12.6,5.3-17.1c2.1-3.7,4.7-6.6,8-8.9c5.4-2.7,12.5-4,21.6-4c9.4,0,16.7,1.4,22.4,4.2
			c3.4,2.2,6.1,5.1,8.4,8.7c3.9,6.3,6.2,14.8,7.2,26.4c-1.7-2.4-4.5-3.9-7.6-3.9c-0.5,0-0.9,0-1.4,0.1L108.6,89
			c-1.6,0.2-3.1,1.1-4.1,2.3h-9.3c-1-1.2-2.5-2-4.1-2.3L72,86.2c-0.5-0.1-0.9-0.1-1.4-0.1c-3.2,0-6.1,1.6-7.8,4.1
			C63,86.6,63.4,83.5,63.8,80.6z M136.4,95.4v3.1c0,6-4.9,10.8-11,10.8h-9.5c-6,0-11-4.9-11-10.8v-2.9c0-2.3,1.7-4.2,3.9-4.5
			l19.1-2.8c0.4-0.1,0.7-0.1,1.1-0.1C133.1,88.2,136.4,91.4,136.4,95.4z M94.7,95.6v2.9c0,6-4.9,10.8-11,10.8h-9.5
			c-6,0-11-4.9-11-10.8v-3.1c0-4,3.3-7.2,7.3-7.2c0.4,0,0.7,0,1.1,0.1l19.1,2.8C93,91.4,94.7,93.3,94.7,95.6z M110.6,152.9
			c-1.5,1.1-3.5,1.3-5.2,0.4l-3.8-1.9l-1.5,1.2c-0.5,0.4-1.2,0.4-1.7,0l-1.1-0.9l-3.1,1.5c-1.7,0.8-3.7,0.7-5.2-0.4
			c-3.3-2.5-6.1-6.7-5.8-13.8c0-1.6,0.5-3.2,1.4-4.5c3.3-4.8,9.2-7.5,15.2-7.4c6,0,11.9,2.6,15.2,7.4c0.9,1.3,1.4,2.9,1.4,4.5
			C116.7,146.2,113.9,150.4,110.6,152.9z M128.1,140.7c-2.8,4.6-6.2,8.7-10.2,12.2c0.6-2.1,0.9-4.5,0.8-7.4v-8.5
			c0-4.5-1.9-8.7-5.2-11.4c-3.8-3-8.7-4.6-13.6-4.6c-5,0-9.9,1.6-13.6,4.6c-3.3,2.6-5.2,6.9-5.2,11.4v8.5c-0.1,3.1,0.2,5.7,1,7.9
			c-4.1-3.5-7.6-7.6-10.4-12.4c-5-8.3-7.9-18.5-8.8-30.2c0.2-1.6,0.2-3.7,0.2-6c2.3,3.9,6.5,6.5,11.3,6.5h9.5c7.2,0,13-5.8,13-12.9
			v-0.9c2-1.4,4-1.3,6.1,0.1v0.8c0,7.1,5.9,12.9,13,12.9h9.5c4.8,0,9.1-2.6,11.3-6.5c0,2.3,0,4.3,0.2,5.9
			C136.1,122.4,133.1,132.4,128.1,140.7z M142.4,93.6c1.8,0,3.1,4.1,3.1,9.8c0,5.7-3.6,9.8-5.5,9.8c-0.2,0-0.3,0-0.5-0.1
			c0.3-3,0.4-6.1,0.4-9.5c0-2.6,0-5.1-0.1-7.6C140.7,94.5,141.6,93.6,142.4,93.6z"/>
	</g>
</g>
</svg>
