<?xml version="1.0" encoding="utf-8"?>
<!-- Generator: Adobe Illustrator 18.0.0, SVG Export Plug-In . SVG Version: 6.00 Build 0)  -->
<!DOCTYPE svg PUBLIC "-//W3C//DTD SVG 1.1//EN" "http://www.w3.org/Graphics/SVG/1.1/DTD/svg11.dtd">
<svg version="1.1" id="slogan" xmlns="http://www.w3.org/2000/svg" xmlns:xlink="http://www.w3.org/1999/xlink" x="0px" y="0px"
	 viewBox="0 0 4823.5 1407.9" enable-background="new 0 0 4823.5 1407.9" xml:space="preserve">
<g>
	<g>
		<path fill="#FFFFFF" d="M1747.6,340.3v-68h5.1v68H1747.6z"/>
		<path fill="#FFFFFF" d="M1864.6,340.3v-28.8c0-9.2-6.2-15.7-15.3-15.7s-15.4,6.8-15.4,16v28.5h-4.8v-28.5
			c0-9.2-6.3-15.9-15.4-15.9s-15.3,6.7-15.3,15.9v28.5h-4.8v-48h4.5l0.1,8c3.3-6.3,9.4-8.9,15.6-8.9c7.3,0,15,3.3,17.8,11.9
			c2.9-7.9,10.4-11.9,17.8-11.9c11.8,0,20.1,8.3,20.1,20.2v28.8H1864.6z"/>
		<path fill="#FFFFFF" d="M1928.9,292.3c0,16,0,32,0,48h-4.8v-10.2c-4.7,7.5-11.9,11-19.6,11c-13.4,0-24.4-10.1-24.4-24.8
			c0-14.7,11-24.6,24.4-24.6c7.8,0,15.6,3.6,19.6,11.1v-10.5H1928.9z M1884.9,316.3c0,12,8.7,20.1,19.6,20.1
			c26.7,0,26.7-40.1,0-40.1C1893.7,296.3,1884.9,304.3,1884.9,316.3z"/>
		<path fill="#FFFFFF" d="M1946.5,272.3v41l22.6-21h6.3v0.2l-24.3,22.4l27.1,25.1v0.3h-6l-25.7-23.5v23.5h-4.7v-68H1946.5z"/>
		<path fill="#FFFFFF" d="M1981.7,316.3c0-14.4,10.9-24.8,24.4-24.8s25.5,8.3,23.7,27h-43.2c1,11.3,9.6,17.8,19.5,17.8
			c6.3,0,13.7-2.5,17.3-7.3l3.4,2.7c-4.7,6.1-13,9.2-20.7,9.2C1992.6,341,1981.7,331.6,1981.7,316.3z M2025.5,314.4
			c-0.1-11.9-7.9-18.5-19.4-18.5c-9.9,0-18.5,6.7-19.5,18.5H2025.5z"/>
		<path fill="#FFFFFF" d="M2109.8,292.3l-29.2,68h-5.1l8.8-20.6l-19.2-47.4h5.1l11.2,28.4l5.6,13.9l5.5-14l12-28.3H2109.8z"/>
		<path fill="#FFFFFF" d="M2116.8,316.4c0-15.3,10.9-25,24.4-25c13.5,0,24.4,9.7,24.4,25c0,15.3-10.9,24.6-24.4,24.6
			C2127.7,341,2116.8,331.7,2116.8,316.4z M2160.9,316.4c0-12.4-8.8-20.5-19.7-20.5c-10.9,0-19.7,8.1-19.7,20.5s8.8,19.9,19.7,19.9
			C2152.1,336.3,2160.9,328.8,2160.9,316.4z"/>
		<path fill="#FFFFFF" d="M2215.2,340.3v-8.6c-3.7,6.6-10.4,9.3-17.1,9.4c-12.8,0-21.7-7.9-21.7-21.2v-27.7h4.8v27.6
			c0,10.9,6.7,16.7,17.1,16.6c9.9-0.1,16.8-7.6,16.8-17.5v-26.7h4.8v48.1H2215.2z"/>
		<path fill="#FFFFFF" d="M2236.9,292.3l0.2,8.5c3-6.5,9.8-9,15.9-9c3.6-0.1,7.1,0.9,10.3,2.8l-2.1,3.9c-2.5-1.6-5.3-2.2-8.2-2.2
			c-8.9,0.1-15.8,7.3-15.8,16v28h-4.8v-48H2236.9z"/>
		<path fill="#FFFFFF" d="M2307.6,272.4v26.5c2.8-5,10.7-7.7,15.7-7.7c14,0,24.4,8.5,24.4,25.1c0,15.7-10.6,25.1-24.7,25.1
			c-5.8,0-11.8-1.9-15.4-7.7l-0.8,6.6h-11.1v-67.9H2307.6z M2308.3,316.3c0,8.6,6.4,14.1,13.9,14.1c7.6,0,13.6-5.7,13.6-14.1
			c0-8.6-6-14-13.6-14C2314.8,302.3,2308.3,308,2308.3,316.3z"/>
		<path fill="#FFFFFF" d="M2368.6,292.4v25.1c0,7.3,4,12.8,11.6,12.8c7.3,0,12.2-6.1,12.2-13.4v-24.5h11.8v48h-10.6l-0.8-6.5
			c-5,4.9-9.5,7.2-16.2,7.2c-11.5,0-19.8-8.6-19.8-23.5v-25.2H2368.6z"/>
		<path fill="#FFFFFF" d="M2445.9,305.1c-3.4-3.2-7.3-4.3-11.9-4.3c-5.6,0-8.7,1.7-8.7,4.8c0,3.1,2.8,4.9,8.9,5.2
			c9,0.6,20.5,2.6,20.5,15.3c0,8.5-6.9,15.7-20.6,15.7c-7.6,0-15.2-1.3-22.1-8.5l5.8-8.5c3.4,3.8,11.2,6.6,16.5,6.7
			c4.5,0.1,8.6-2.2,8.6-5.7c0-3.3-2.7-4.7-9.5-5.1c-9-0.7-19.8-4-19.8-14.9c0-11.1,11.5-15,20.2-15c7.5,0,13.1,1.5,18.7,6.3
			L2445.9,305.1z"/>
		<path fill="#FFFFFF" d="M2475.2,278.9c0,9.2-14,9.2-14,0C2461.2,269.7,2475.2,269.7,2475.2,278.9z M2462.3,292.2v48.1h11.9v-48.1
			H2462.3z"/>
		<path fill="#FFFFFF" d="M2520.1,340.3v-25.1c0-7.3-4-12.8-11.6-12.8c-7.3,0-12.2,6.1-12.2,13.4v24.5h-11.8v-48h10.6l0.8,6.5
			c4.9-4.8,9.7-7.2,15.7-7.2c11.3,0,20.3,8.5,20.3,23.5v25.2H2520.1z"/>
		<path fill="#FFFFFF" d="M2552.3,320.6c0.8,5.9,5.9,10.2,14.3,10.2c4.4,0,10.1-1.7,12.8-4.5l7.6,7.5c-5.1,5.2-13.3,7.8-20.6,7.8
			c-16.5,0-26.3-10.2-26.3-25.5c0-14.6,9.9-25.1,25.5-25.1c16,0,26,9.9,24.2,29.6H2552.3z M2578.3,310.8c-0.8-6.2-5.6-9.3-12.4-9.3
			c-6.4,0-11.7,3.1-13.4,9.3H2578.3z"/>
		<path fill="#FFFFFF" d="M2630.1,305.1c-3.4-3.2-7.3-4.3-11.9-4.3c-5.6,0-8.7,1.7-8.7,4.8c0,3.1,2.8,4.9,8.9,5.2
			c9,0.6,20.5,2.6,20.5,15.3c0,8.5-6.9,15.7-20.6,15.7c-7.6,0-15.2-1.3-22.1-8.5l5.8-8.5c3.4,3.8,11.2,6.6,16.5,6.7
			c4.5,0.1,8.6-2.2,8.6-5.7c0-3.3-2.7-4.7-9.5-5.1c-9-0.7-19.8-4-19.8-14.9c0-11.1,11.5-15,20.2-15c7.5,0,13.1,1.5,18.7,6.3
			L2630.1,305.1z"/>
		<path fill="#FFFFFF" d="M2677.8,305.1c-3.4-3.2-7.3-4.3-11.9-4.3c-5.6,0-8.7,1.7-8.7,4.8c0,3.1,2.8,4.9,8.9,5.2
			c9,0.6,20.5,2.6,20.5,15.3c0,8.5-6.9,15.7-20.6,15.7c-7.6,0-15.2-1.3-22.1-8.5l5.8-8.5c3.4,3.8,11.2,6.6,16.5,6.7
			c4.5,0.1,8.6-2.2,8.6-5.7c0-3.3-2.7-4.7-9.5-5.1c-9-0.7-19.8-4-19.8-14.9c0-11.1,11.5-15,20.2-15c7.5,0,13.1,1.5,18.7,6.3
			L2677.8,305.1z"/>
	</g>
	<g>
		<path fill="#FFFFFF" d="M1935.8,419.9c-3.4-3.2-7.3-4.3-11.9-4.3c-5.6,0-8.7,1.7-8.7,4.8c0,3.1,2.8,4.9,8.9,5.2
			c9,0.6,20.5,2.6,20.5,15.3c0,8.5-6.9,15.7-20.6,15.7c-7.6,0-15.2-1.3-22.1-8.5l5.8-8.5c3.4,3.8,11.2,6.6,16.5,6.7
			c4.5,0.1,8.6-2.2,8.6-5.7c0-3.3-2.7-4.7-9.5-5.1c-9-0.7-19.8-4-19.8-14.9c0-11.1,11.5-15,20.2-15c7.5,0,13.1,1.5,18.7,6.3
			L1935.8,419.9z"/>
		<path fill="#FFFFFF" d="M1968.9,393.7v13.6h13.2v10.2h-13.3v20.7c0,4.6,2.5,6.8,6.2,6.8c1.8,0,4-0.6,5.7-1.5l3.3,10.1
			c-3.4,1.4-6.2,1.9-9.8,2c-10.4,0.4-17.2-5.5-17.2-17.5v-20.7h-8.9v-10.2h8.9V395L1968.9,393.7z"/>
		<path fill="#FFFFFF" d="M2028.9,407.2h11.4v47.9h-11.2l-0.6-7c-2.7,5.6-10.2,8.4-15.5,8.5c-14.2,0.1-24.7-8.6-24.7-25.5
			c0-16.5,11-25.2,25-25.1c6.4,0,12.5,3,15.3,7.8L2028.9,407.2z M2000.2,431.1c0,9.1,6.3,14.6,14.2,14.6c18.7,0,18.7-29,0-29
			C2006.5,416.6,2000.2,422,2000.2,431.1z"/>
		<path fill="#FFFFFF" d="M2085.5,455.1V430c0-7.3-4-12.8-11.6-12.8c-7.3,0-12.2,6.1-12.2,13.4v24.5H2050v-48h10.6l0.8,6.5
			c4.9-4.8,9.7-7.2,15.7-7.2c11.3,0,20.3,8.5,20.3,23.5v25.2H2085.5z"/>
		<path fill="#FFFFFF" d="M2157.3,387.2v67.9h-11.1l-0.8-6.6c-3.7,5.7-9.6,7.7-15.4,7.7c-14.1,0-24.7-9.3-24.7-25.1
			c0-16.5,10.4-25.1,24.4-25.1c5.1,0,12.9,2.7,15.7,7.7v-26.5H2157.3z M2117.2,431.1c0,8.4,6,14.1,13.6,14.1
			c7.5,0,13.9-5.4,13.9-14.1c0-8.4-6.4-14-13.9-14C2123.2,417.1,2117.2,422.4,2117.2,431.1z"/>
		<path fill="#FFFFFF" d="M2234.8,431.2c0,13.8-9.4,25-25,25s-24.9-11.2-24.9-25c0-13.7,9.5-25,24.8-25
			C2225,406.2,2234.8,417.5,2234.8,431.2z M2196.8,431.2c0,7.3,4.4,14.1,13,14.1s13-6.8,13-14.1c0-7.2-5.1-14.2-13-14.2
			C2201.3,417,2196.8,424,2196.8,431.2z"/>
		<path fill="#FFFFFF" d="M2255.1,407.2v25.1c0,7.3,4,12.8,11.6,12.8c7.3,0,12.2-6.1,12.2-13.4v-24.5h11.8v48h-10.6l-0.8-6.5
			c-5,4.9-9.5,7.2-16.2,7.2c-11.5,0-19.8-8.6-19.8-23.5v-25.2H2255.1z"/>
		<path fill="#FFFFFF" d="M2317.9,393.7v13.6h13.2v10.2h-13.3v20.7c0,4.6,2.5,6.8,6.2,6.8c1.8,0,4-0.6,5.7-1.5l3.3,10.1
			c-3.4,1.4-6.2,1.9-9.8,2c-10.4,0.4-17.2-5.5-17.2-17.5v-20.7h-8.9v-10.2h8.9V395L2317.9,393.7z"/>
		<path fill="#FFFFFF" d="M2373,455.1v-43.4h-9.8v-4.2h9.8v-4.3c0-9.5,3.8-16.4,14.4-16.4c3.6,0,6.8,1.3,9.5,3.3l-2.3,3.5
			c-2.6-1.6-4.5-2.4-7.4-2.4c-6,0-9.5,3.7-9.5,12v4.3h15.8v4.2h-15.8v43.4H2373z"/>
		<path fill="#FFFFFF" d="M2408.2,407.1l0.2,8.5c3-6.5,9.8-9,15.9-9c3.6-0.1,7.1,0.9,10.3,2.8l-2.1,3.9c-2.5-1.6-5.3-2.2-8.2-2.2
			c-8.9,0.1-15.8,7.3-15.8,16v28h-4.8v-48H2408.2z"/>
		<path fill="#FFFFFF" d="M2439.6,431.2c0-15.3,10.9-25,24.4-25c13.5,0,24.4,9.7,24.4,25c0,15.3-10.9,24.6-24.4,24.6
			C2450.5,455.8,2439.6,446.4,2439.6,431.2z M2483.7,431.2c0-12.4-8.8-20.5-19.7-20.5c-10.9,0-19.7,8.1-19.7,20.5
			s8.8,19.9,19.7,19.9C2474.8,451.1,2483.7,443.6,2483.7,431.2z"/>
		<path fill="#FFFFFF" d="M2570.4,455.1v-28.8c0-9.2-6.2-15.7-15.3-15.7s-15.4,6.8-15.4,16v28.5h-4.8v-28.5
			c0-9.2-6.3-15.9-15.4-15.9s-15.3,6.7-15.3,15.9v28.5h-4.8v-48h4.5l0.1,8c3.3-6.3,9.4-8.9,15.6-8.9c7.3,0,15,3.3,17.8,11.9
			c2.9-7.9,10.4-11.9,17.8-11.9c11.8,0,20.1,8.3,20.1,20.2v28.8H2570.4z"/>
		<path fill="#FFFFFF" d="M2626.3,392.6v14.5h16.3v4h-16.3v29.2c0,6.5,1.4,11.1,8.8,11.1c2.3,0,5-0.8,7.4-1.9l1.7,3.9
			c-3,1.5-6,2.4-9,2.4c-10.2,0-13.5-6-13.5-15.4v-29.2h-10.2v-4h10.2v-14L2626.3,392.6z"/>
		<path fill="#FFFFFF" d="M2658.1,387.1V416c3.9-6.9,10.6-9.5,17.3-9.6c13.4,0,20.1,8.6,20.1,21.2v27.5h-4.7v-27.5
			c0-9.9-4.7-16.6-15.4-16.6c-10.1,0-17.1,7.8-17.1,17.8v26.3h-4.8v-68H2658.1z"/>
		<path fill="#FFFFFF" d="M2705.2,431.1c0-14.4,10.9-24.8,24.4-24.8s25.5,8.3,23.7,27h-43.2c1,11.3,9.6,17.8,19.5,17.8
			c6.3,0,13.7-2.5,17.3-7.3l3.4,2.7c-4.7,6.1-13,9.2-20.7,9.2C2716.1,455.8,2705.2,446.3,2705.2,431.1z M2749.1,429.2
			c-0.1-11.9-7.9-18.5-19.4-18.5c-9.9,0-18.5,6.7-19.5,18.5H2749.1z"/>
		<path fill="#FFFFFF" d="M2831.7,448.4c-4.9,4.9-11.2,7.2-17.5,7.2c-13.5,0-24.7-9.3-24.7-24.5c0-15.2,10.8-24.5,24.7-24.5
			c6.3,0,12.6,2.4,17.5,7.2l-3.1,3c-3.9-3.9-9.2-5.7-14.4-5.7c-10.9,0-20,7.1-20,20c0,12.9,9.1,20,20,20c5.1,0,10.4-2,14.3-5.9
			L2831.7,448.4z"/>
		<path fill="#FFFFFF" d="M2845.9,407.1l0.2,8.5c3-6.5,9.8-9,15.9-9c3.6-0.1,7.1,0.9,10.3,2.8l-2.1,3.9c-2.5-1.6-5.3-2.2-8.2-2.2
			c-8.9,0.1-15.8,7.3-15.8,16v28h-4.8v-48H2845.9z"/>
		<path fill="#FFFFFF" d="M2877.3,431.2c0-15.3,10.9-25,24.4-25c13.5,0,24.4,9.7,24.4,25c0,15.3-10.9,24.6-24.4,24.6
			C2888.1,455.8,2877.3,446.4,2877.3,431.2z M2921.4,431.2c0-12.4-8.8-20.5-19.7-20.5c-10.9,0-19.7,8.1-19.7,20.5
			s8.8,19.9,19.7,19.9C2912.5,451.1,2921.4,443.6,2921.4,431.2z"/>
		<path fill="#FFFFFF" d="M2984.5,455.1h-5.2l-7.8-21l-5.8-18.7l-6,18.7l-7.8,20.9h-5.2l-17.1-48h5.2l14.5,42.4l14.7-42.4h3.4
			l14.6,42.4l14.4-42.4h5.2L2984.5,455.1z"/>
		<path fill="#FFFFFF" d="M3055.3,387.1v68h-4.7v-10.6c-4,7.3-11.9,11.4-20,11.4c-13.4,0-24-8.8-24-24.8c0-15.8,10.7-24.8,24.1-24.8
			c8.3,0,16,3.5,19.9,11.3v-30.5H3055.3z M3011.3,431.1c0,13.3,8.8,20.1,19.6,20.1c11.3,0,19.6-8.3,19.6-20.2
			c0-11.9-8.5-20.1-19.6-20.1C3020.2,410.9,3011.3,417.6,3011.3,431.1z"/>
		<path fill="#FFFFFF" d="M3074.8,452.2c0,5.1-7.7,5.1-7.7,0S3074.8,447.1,3074.8,452.2z"/>
	</g>
</g>
</svg>
