<?xml version="1.0" encoding="utf-8"?>
<!-- Generator: Adobe Illustrator 18.0.0, SVG Export Plug-In . SVG Version: 6.00 Build 0)  -->
<!DOCTYPE svg PUBLIC "-//W3C//DTD SVG 1.1//EN" "http://www.w3.org/Graphics/SVG/1.1/DTD/svg11.dtd">
<svg version="1.1" id="back-clouds" xmlns="http://www.w3.org/2000/svg" xmlns:xlink="http://www.w3.org/1999/xlink" x="0px"
	 y="0px" viewBox="0 0 4823.5 1407.9" enable-background="new 0 0 4823.5 1407.9" xml:space="preserve">
<g>
	<path fill="#FFFFFF" d="M2135.3,711.2c0-5.9-4.7-10.7-10.6-10.7c-1.5,0-2.8,0.3-4.1,0.8c-1-4.9-5.3-8.5-10.4-8.5
		c-1.4,0-2.7,0.3-3.9,0.8c0-0.3,0-0.5,0-0.8c0-6.6-5.3-11.9-11.9-11.9c-5.8,0-10.6,4.1-11.7,9.5c-1-0.3-2.1-0.5-3.2-0.5
		c-6.3,0-11.4,5.1-11.4,11.4c0,0.4,0,0.7,0.1,1.1c-5,0.4-9,4.9-9,10c0,5.4,4.4,10.1,9.7,10.1h55.6v-0.6
		C2130.5,721.8,2135.3,717,2135.3,711.2z"/>
	<path fill="#FFFFFF" d="M2776.3,739.4c0-5.3-4.1-9.5-9.4-9.5c-1.3,0-2.5,0.3-3.6,0.7c-0.9-4.3-4.7-7.6-9.3-7.6
		c-1.2,0-2.4,0.2-3.5,0.7c0-0.2,0-0.4,0-0.7c0-5.9-4.7-10.6-10.6-10.6c-5.1,0-9.4,3.7-10.4,8.5c-0.9-0.3-1.9-0.4-2.9-0.4
		c-5.6,0-10.1,4.5-10.1,10.1c0,0.3,0,0.7,0,1c-4.5,0.4-8,4.4-8,9c0,4.8,3.9,9,8.7,9h49.2v-0.6
		C2772.5,748.8,2776.3,744.6,2776.3,739.4z"/>
</g>
<g>
	<path fill="#FFFFFF" d="M687.3,697.2c0-5.9-4.7-10.7-10.6-10.7c-1.5,0-2.8,0.3-4.1,0.8c-1-4.9-5.3-8.5-10.4-8.5
		c-1.4,0-2.7,0.3-3.9,0.8c0-0.3,0-0.5,0-0.8c0-6.6-5.3-11.9-11.9-11.9c-5.8,0-10.6,4.1-11.7,9.5c-1-0.3-2.1-0.5-3.2-0.5
		c-6.3,0-11.4,5.1-11.4,11.4c0,0.4,0,0.7,0.1,1.1c-5,0.4-9,4.9-9,10c0,5.4,4.4,10.1,9.7,10.1h55.6v-0.6
		C682.5,707.8,687.3,703,687.3,697.2z"/>
</g>
<g>
	<path fill="#FFFFFF" d="M3856.3,697.2c0-5.9-4.7-10.7-10.6-10.7c-1.5,0-2.8,0.3-4.1,0.8c-1-4.9-5.3-8.5-10.4-8.5
		c-1.4,0-2.7,0.3-3.9,0.8c0-0.3,0-0.5,0-0.8c0-6.6-5.3-11.9-11.9-11.9c-5.8,0-10.6,4.1-11.7,9.5c-1-0.3-2.1-0.5-3.2-0.5
		c-6.3,0-11.4,5.1-11.4,11.4c0,0.4,0,0.7,0.1,1.1c-5,0.4-9,4.9-9,10c0,5.4,4.4,10.1,9.7,10.1h55.6v-0.6
		C3851.5,707.8,3856.3,703,3856.3,697.2z"/>
</g>
</svg>
