<?xml version="1.0" encoding="utf-8"?>
<!-- Generator: Adobe Illustrator 18.0.0, SVG Export Plug-In . SVG Version: 6.00 Build 0)  -->
<!DOCTYPE svg PUBLIC "-//W3C//DTD SVG 1.1//EN" "http://www.w3.org/Graphics/SVG/1.1/DTD/svg11.dtd">
<svg version="1.1" id="back-buildings" xmlns="http://www.w3.org/2000/svg" xmlns:xlink="http://www.w3.org/1999/xlink" x="0px"
	 y="0px" viewBox="0 0 4823.5 1026" enable-background="new 0 0 4823.5 1026" xml:space="preserve">
<polygon fill="#75888E" points="4590.5,345.6 4590.5,328.6 4340.5,328.6 4340.5,360.6 4231.5,360.6 4231.5,345.6 4138.5,345.6 
	3998.5,345.6 3998.5,328.6 3748.5,328.6 3748.5,360.6 3546.5,360.6 3546.5,345.6 3289.5,345.6 3289.5,377.6 3204.5,377.6 
	3204.5,371.6 3004.5,371.6 3004.5,345.6 2771.5,345.6 2771.5,328.6 2521.5,328.6 2521.5,360.6 2319.5,360.6 2319.5,345.6 
	2062.5,345.6 2062.5,377.6 1977.5,377.6 1977.5,371.6 1869.5,371.6 1869.5,345.6 1636.5,345.6 1636.5,328.6 1386.5,328.6 
	1386.5,360.6 1267.5,360.6 1267.5,345.6 1184.5,345.6 1034.5,345.6 1034.5,328.6 784.5,328.6 784.5,360.6 582.5,360.6 582.5,345.6 
	325.5,345.6 325.5,377.6 240.5,377.6 240.5,371.6 4.5,371.6 4.5,1025.6 606.5,1025.6 1267.5,1025.6 1741.5,1025.6 1869.5,1025.6 
	2968.5,1025.6 3004.5,1025.6 3560.5,1025.6 4231.5,1025.6 4823.5,1025.6 4823.5,345.6 "/>
</svg>
