<?xml version="1.0" encoding="utf-8"?>
<!-- Generator: Adobe Illustrator 18.0.0, SVG Export Plug-In . SVG Version: 6.00 Build 0)  -->
<!DOCTYPE svg PUBLIC "-//W3C//DTD SVG 1.1//EN" "http://www.w3.org/Graphics/SVG/1.1/DTD/svg11.dtd">
<svg version="1.1" id="Layer_1" xmlns="http://www.w3.org/2000/svg" xmlns:xlink="http://www.w3.org/1999/xlink" x="0px" y="0px"
	 viewBox="0 0 250 250" enable-background="new 0 0 250 250" xml:space="preserve">
<g>
	<g>
		<polygon fill="#FFFFFF" points="213.5,187 213.5,12.2 156.8,44.9 93,30.4 36.5,63 36.5,237.8 93.3,205.1 157,219.6 		"/>
		<path d="M36.5,240.5c-0.5,0-0.9-0.1-1.4-0.4c-0.8-0.5-1.3-1.4-1.3-2.3V63c0-1,0.5-1.9,1.3-2.3L91.6,28c0.6-0.3,1.3-0.4,1.9-0.3
			L156.4,42l55.8-32.1c0.8-0.5,1.9-0.5,2.7,0c0.8,0.5,1.3,1.4,1.3,2.3V187c0,1-0.5,1.9-1.3,2.3L158.4,222c-0.6,0.3-1.3,0.4-1.9,0.3
			L93.7,208l-55.9,32.1C37.4,240.3,36.9,240.5,36.5,240.5z M39.1,64.6v168.5l52.8-30.3c0.6-0.3,1.3-0.4,1.9-0.3l62.7,14.3l54.2-31.3
			V16.9l-52.7,30.3c-0.6,0.3-1.3,0.4-1.9,0.3L93.4,33.2L39.1,64.6z"/>
	</g>
	<g>
		<rect x="69.7" y="129.6" transform="matrix(1.250581e-003 1 -1 1.250581e-003 289.0972 -24.9641)" width="174.8" height="5.4"/>
	</g>
	<g>
		<rect x="4.4" y="115.1" transform="matrix(1.250581e-003 1 -1 1.250581e-003 209.4539 25.7885)" width="174.8" height="5.4"/>
	</g>
	<g>
		<line fill="#FFFFFF" x1="105.2" y1="60.2" x2="144.7" y2="69.1"/>
		<path d="M144.7,71.8c-0.2,0-0.4,0-0.6-0.1l-39.5-8.9c-1.5-0.3-2.4-1.8-2-3.2c0.3-1.5,1.8-2.4,3.2-2l39.5,8.9
			c1.5,0.3,2.4,1.8,2,3.2C147,71,145.9,71.8,144.7,71.8z"/>
	</g>
	<g>
		<line fill="#FFFFFF" x1="105.2" y1="74.2" x2="144.7" y2="83.2"/>
		<path d="M144.7,85.9c-0.2,0-0.4,0-0.6-0.1l-39.5-8.9c-1.5-0.3-2.4-1.8-2-3.2c0.3-1.5,1.8-2.4,3.2-2l39.5,8.9
			c1.5,0.3,2.4,1.8,2,3.2C147,85,145.9,85.9,144.7,85.9z"/>
	</g>
	<g>
		<line fill="#FFFFFF" x1="105.2" y1="88.2" x2="144.7" y2="97.2"/>
		<path d="M144.7,99.9c-0.2,0-0.4,0-0.6-0.1l-39.5-8.9c-1.5-0.3-2.4-1.8-2-3.2c0.3-1.5,1.8-2.4,3.2-2l39.5,8.9
			c1.5,0.3,2.4,1.8,2,3.2C147,99,145.9,99.9,144.7,99.9z"/>
	</g>
	<g>
		<line fill="#FFFFFF" x1="105.2" y1="102.3" x2="144.7" y2="111.2"/>
		<path d="M144.7,113.9c-0.2,0-0.4,0-0.6-0.1l-39.5-8.9c-1.5-0.3-2.4-1.8-2-3.2c0.3-1.5,1.8-2.4,3.2-2l39.5,8.9
			c1.5,0.3,2.4,1.8,2,3.2C147,113.1,145.9,113.9,144.7,113.9z"/>
	</g>
	<g>
		<polygon fill="#FFFFFF" points="144.4,190.1 104.8,181.2 104.8,128.6 144.5,137.5 		"/>
		<path d="M144.4,192.8c-0.2,0-0.4,0-0.6-0.1l-39.6-8.9c-1.2-0.3-2.1-1.4-2.1-2.6v-52.6c0-0.8,0.4-1.6,1-2.1s1.5-0.7,2.3-0.5
			l39.7,8.9c1.2,0.3,2.1,1.4,2.1,2.6l-0.1,52.6c0,0.8-0.4,1.6-1,2.1C145.6,192.6,145,192.8,144.4,192.8z M107.5,179l34.2,7.7
			l0.1-47.1l-34.3-7.7V179z"/>
	</g>
	<g>
		<polygon fill="#FFFFFF" points="57.9,80.1 45.2,87.6 45.2,73.5 58,66.1 		"/>
		<path fill="#EB0029" d="M45.2,90.3c-0.5,0-0.9-0.1-1.3-0.4c-0.8-0.5-1.4-1.4-1.4-2.3v-14c0-1,0.5-1.8,1.3-2.3l12.8-7.5
			c0.8-0.5,1.9-0.5,2.7,0c0.8,0.5,1.4,1.4,1.3,2.4l-0.2,14c0,0.9-0.5,1.8-1.3,2.3l-12.6,7.5C46.2,90.1,45.7,90.3,45.2,90.3z
			 M47.9,75.1v7.8l7.3-4.3l0.1-7.8L47.9,75.1z"/>
	</g>
	<g>
		<polygon fill="#FFFFFF" points="57.9,106.4 45.2,113.9 45.2,99.8 58,92.4 		"/>
		<path fill="#EB0029" d="M45.2,116.6c-0.5,0-0.9-0.1-1.3-0.4c-0.8-0.5-1.4-1.4-1.4-2.3v-14c0-1,0.5-1.8,1.3-2.3L56.7,90
			c0.8-0.5,1.9-0.5,2.7,0c0.8,0.5,1.4,1.4,1.3,2.4l-0.2,14c0,0.9-0.5,1.8-1.3,2.3l-12.6,7.5C46.2,116.4,45.7,116.6,45.2,116.6z
			 M47.9,101.4v7.8l7.3-4.3l0.1-7.8L47.9,101.4z"/>
	</g>
	<g>
		<polygon fill="#FFFFFF" points="57.9,132.7 45.2,140.2 45.2,126.1 58,118.7 		"/>
		<path fill="#EB0029" d="M45.2,142.9c-0.5,0-0.9-0.1-1.3-0.4c-0.8-0.5-1.4-1.4-1.4-2.3v-14c0-1,0.5-1.8,1.3-2.3l12.8-7.5
			c0.8-0.5,1.9-0.5,2.7,0c0.8,0.5,1.4,1.4,1.3,2.4l-0.2,14c0,0.9-0.5,1.8-1.3,2.3l-12.6,7.5C46.2,142.7,45.7,142.9,45.2,142.9z
			 M47.9,127.7v7.8l7.3-4.3l0.1-7.8L47.9,127.7z"/>
	</g>
	<g>
		<line fill="#FFFFFF" x1="67.4" y1="71.8" x2="82.8" y2="62.9"/>
		<path d="M67.4,74.5c-0.9,0-1.8-0.5-2.3-1.4c-0.7-1.3-0.3-2.9,1-3.7l15.4-8.9c1.3-0.7,2.9-0.3,3.7,1c0.7,1.3,0.3,2.9-1,3.7
			l-15.4,8.9C68.3,74.4,67.8,74.5,67.4,74.5z"/>
	</g>
	<g>
		<line fill="#FFFFFF" x1="67.4" y1="96.3" x2="82.8" y2="87.5"/>
		<path d="M67.4,99c-0.9,0-1.8-0.5-2.3-1.4c-0.7-1.3-0.3-2.9,1-3.7l15.4-8.9c1.3-0.7,2.9-0.3,3.7,1c0.7,1.3,0.3,2.9-1,3.7l-15.4,8.9
			C68.3,98.9,67.8,99,67.4,99z"/>
	</g>
	<g>
		<line fill="#FFFFFF" x1="67.4" y1="122.6" x2="82.8" y2="113.8"/>
		<path d="M67.4,125.3c-0.9,0-1.8-0.5-2.3-1.4c-0.7-1.3-0.3-2.9,1-3.7l15.4-8.9c1.3-0.7,2.9-0.3,3.7,1c0.7,1.3,0.3,2.9-1,3.7
			L68.7,125C68.3,125.2,67.8,125.3,67.4,125.3z"/>
	</g>
	<g>
		<line fill="#FFFFFF" x1="46.2" y1="159.3" x2="82.8" y2="138.3"/>
		<path d="M46.2,162c-0.9,0-1.8-0.5-2.3-1.4c-0.7-1.3-0.3-2.9,1-3.7l36.6-21c1.3-0.7,2.9-0.3,3.7,1c0.7,1.3,0.3,2.9-1,3.7l-36.6,21
			C47.2,161.9,46.7,162,46.2,162z"/>
	</g>
	<g>
		<line fill="#FFFFFF" x1="46.2" y1="173.4" x2="82.8" y2="152.3"/>
		<path d="M46.2,176.1c-0.9,0-1.8-0.5-2.3-1.4c-0.7-1.3-0.3-2.9,1-3.7l36.6-21c1.3-0.7,2.9-0.3,3.7,1c0.7,1.3,0.3,2.9-1,3.7
			l-36.6,21C47.2,175.9,46.7,176.1,46.2,176.1z"/>
	</g>
	<g>
		<line fill="#FFFFFF" x1="46.2" y1="187.4" x2="82.8" y2="166.4"/>
		<path d="M46.2,190.1c-0.9,0-1.8-0.5-2.3-1.4c-0.7-1.3-0.3-2.9,1-3.7l36.6-21c1.3-0.7,2.9-0.3,3.7,1c0.7,1.3,0.3,2.9-1,3.7
			l-36.6,21C47.2,190,46.7,190.1,46.2,190.1z"/>
	</g>
	<g>
		<line fill="#FFFFFF" x1="46.2" y1="201.4" x2="82.8" y2="180.4"/>
		<path d="M46.2,204.1c-0.9,0-1.8-0.5-2.3-1.4c-0.7-1.3-0.3-2.9,1-3.7l36.6-21c1.3-0.7,2.9-0.3,3.7,1c0.7,1.3,0.3,2.9-1,3.7
			l-36.6,21C47.2,204,46.7,204.1,46.2,204.1z"/>
	</g>
	<g>
		<polygon fill="#FFFFFF" points="201.3,89.1 169.7,107.9 169.7,77.2 201.3,58.4 		"/>
		<path fill="#EB0029" d="M169.7,110.6c-0.5,0-0.9-0.1-1.3-0.4c-0.8-0.5-1.4-1.4-1.4-2.3V77.2c0-1,0.5-1.8,1.3-2.3l31.6-18.8
			c0.8-0.5,1.9-0.5,2.7,0c0.8,0.5,1.4,1.4,1.4,2.3v30.7c0,1-0.5,1.8-1.3,2.3l-31.6,18.8C170.7,110.5,170.2,110.6,169.7,110.6z
			 M172.4,78.7v24.4l26.2-15.6V63.2L172.4,78.7z"/>
	</g>
	<g>
		<line fill="#FFFFFF" x1="169.4" y1="123.1" x2="202.2" y2="104.4"/>
		<path d="M169.4,125.8c-0.9,0-1.8-0.5-2.3-1.4c-0.7-1.3-0.3-2.9,1-3.7l32.7-18.8c1.3-0.7,2.9-0.3,3.7,1s0.3,2.9-1,3.7l-32.7,18.8
			C170.3,125.7,169.9,125.8,169.4,125.8z"/>
	</g>
	<g>
		<line fill="#FFFFFF" x1="169.4" y1="134.4" x2="202.2" y2="115.6"/>
		<path d="M169.4,137.1c-0.9,0-1.8-0.5-2.3-1.4c-0.7-1.3-0.3-2.9,1-3.7l32.7-18.8c1.3-0.7,2.9-0.3,3.7,1c0.7,1.3,0.3,2.9-1,3.7
			l-32.7,18.8C170.3,137,169.9,137.1,169.4,137.1z"/>
	</g>
	<g>
		<line fill="#FFFFFF" x1="169.4" y1="173" x2="202.2" y2="154.2"/>
		<path d="M169.4,175.7c-0.9,0-1.8-0.5-2.3-1.4c-0.7-1.3-0.3-2.9,1-3.7l32.7-18.8c1.3-0.7,2.9-0.3,3.7,1c0.7,1.3,0.3,2.9-1,3.7
			l-32.7,18.8C170.3,175.5,169.9,175.7,169.4,175.7z"/>
	</g>
	<g>
		<line fill="#FFFFFF" x1="169.4" y1="184.2" x2="202.2" y2="165.4"/>
		<path d="M169.4,186.9c-0.9,0-1.8-0.5-2.3-1.4c-0.7-1.3-0.3-2.9,1-3.7l32.7-18.8c1.3-0.7,2.9-0.3,3.7,1c0.7,1.3,0.3,2.9-1,3.7
			l-32.7,18.8C170.3,186.8,169.9,186.9,169.4,186.9z"/>
	</g>
</g>
</svg>
