<?xml version="1.0" encoding="utf-8"?>
<!-- Generator: Adobe Illustrator 18.0.0, SVG Export Plug-In . SVG Version: 6.00 Build 0)  -->
<!DOCTYPE svg PUBLIC "-//W3C//DTD SVG 1.1//EN" "http://www.w3.org/Graphics/SVG/1.1/DTD/svg11.dtd">
<svg version="1.1" id="Layer_1" xmlns="http://www.w3.org/2000/svg" xmlns:xlink="http://www.w3.org/1999/xlink" x="0px" y="0px"
	 viewBox="0 0 250 250" enable-background="new 0 0 250 250" xml:space="preserve">
<g>
	<g>
		<path fill="#FFFFFF" d="M231.5,196.3h-213c-5.5,0-10-4.5-10-10V63.7c0-5.5,4.5-10,10-10h213c5.5,0,10,4.5,10,10v122.6
			C241.5,191.8,237,196.3,231.5,196.3z"/>
		<path d="M228,199H22c-8.9,0-16.2-7.3-16.2-16.2V67.2C5.8,58.3,13.1,51,22,51h206c8.9,0,16.2,7.3,16.2,16.2v115.6
			C244.2,191.7,236.9,199,228,199z M22,56.4c-5.9,0-10.8,4.8-10.8,10.8v115.6c0,5.9,4.8,10.8,10.8,10.8h206
			c5.9,0,10.8-4.8,10.8-10.8V67.2c0-5.9-4.8-10.8-10.8-10.8H22z"/>
	</g>
	<g>
		<g>
			<path fill="#FFFFFF" d="M101.9,152c0,16.8-14.2,23.4-31.7,23.4s-31.7-6.6-31.7-23.4s14.2-37.5,31.7-37.5S101.9,135.1,101.9,152z"
				/>
			<path fill="#EB0029" d="M70.2,178.1c-21.9,0-34.4-9.5-34.4-26.1c0-18.2,15.4-40.2,34.4-40.2s34.4,22,34.4,40.2
				C104.6,168.6,92.1,178.1,70.2,178.1z M70.2,117.1c-15.6,0-29,19.2-29,34.8c0,18,18.2,20.7,29,20.7s29-2.7,29-20.7
				C99.2,136.3,85.8,117.1,70.2,117.1z"/>
		</g>
		<g>
			<circle fill="#FFFFFF" cx="70.5" cy="98.5" r="20.2"/>
			<path fill="#EB0029" d="M70.5,121.4c-12.6,0-22.9-10.3-22.9-22.9s10.3-22.9,22.9-22.9c12.6,0,22.9,10.3,22.9,22.9
				S83.1,121.4,70.5,121.4z M70.5,81C60.9,81,53,88.9,53,98.5c0,9.6,7.8,17.5,17.5,17.5c9.6,0,17.5-7.8,17.5-17.5
				C88,88.9,80.1,81,70.5,81z"/>
		</g>
	</g>
	<g>
		<g>
			<path d="M212.1,102h-82.2c-1.5,0-2.7-1-2.7-2.5s1.2-2.5,2.7-2.5h82.2c1.5,0,2.7,1,2.7,2.5S213.6,102,212.1,102z"/>
		</g>
		<g>
			<path d="M212.1,130h-82.2c-1.5,0-2.7-1-2.7-2.5s1.2-2.5,2.7-2.5h82.2c1.5,0,2.7,1,2.7,2.5S213.6,130,212.1,130z"/>
		</g>
		<g>
			<path d="M212.1,153h-82.2c-1.5,0-2.7-0.5-2.7-2s1.2-2,2.7-2h82.2c1.5,0,2.7,0.5,2.7,2S213.6,153,212.1,153z"/>
		</g>
	</g>
</g>
</svg>
