<?xml version="1.0" encoding="utf-8"?>
<!-- Generator: Adobe Illustrator 18.0.0, SVG Export Plug-In . SVG Version: 6.00 Build 0)  -->
<!DOCTYPE svg PUBLIC "-//W3C//DTD SVG 1.1//EN" "http://www.w3.org/Graphics/SVG/1.1/DTD/svg11.dtd">
<svg version="1.1" id="Layer_1" xmlns="http://www.w3.org/2000/svg" xmlns:xlink="http://www.w3.org/1999/xlink" x="0px" y="0px"
	 viewBox="0 0 32 32" enable-background="new 0 0 32 32" xml:space="preserve">
<path fill="#FFFFFF" d="M29,4H3C1.4,4,0,5.3,0,7v20c0,1.6,1.4,3,3,3h26c1.6,0,3-1.4,3-3V7C32,5.3,30.6,4,29,4z M12.5,17.2L4,23.8
	V8.1C4,8.1,12.5,17.2,12.5,17.2z M5.5,8h21L16,15.9C16,15.9,5.5,8,5.5,8z M12.8,17.6L16,21l3.2-3.4l6.6,8.4H6.2L12.8,17.6L12.8,17.6
	z M19.5,17.2L28,8.1v15.7C28,23.8,19.5,17.2,19.5,17.2z"/>
</svg>
