<?xml version="1.0" encoding="utf-8"?>
<!-- Generator: Adobe Illustrator 18.0.0, SVG Export Plug-In . SVG Version: 6.00 Build 0)  -->
<!DOCTYPE svg PUBLIC "-//W3C//DTD SVG 1.1//EN" "http://www.w3.org/Graphics/SVG/1.1/DTD/svg11.dtd">
<svg version="1.1" id="far-buildings" xmlns="http://www.w3.org/2000/svg" xmlns:xlink="http://www.w3.org/1999/xlink" x="0px"
	 y="0px" viewBox="0 0 4823.5 1407.9" enable-background="new 0 0 4823.5 1407.9" xml:space="preserve">
<polygon fill="#58707A" points="3190.5,922.5 3190.5,913.5 3148.5,913.5 3148.5,919.5 3138.5,919.5 3138.5,870.5 3018.5,870.5 
	3018.5,863.5 3003.5,863.5 3003.5,832.5 2959.5,832.5 2959.5,863.5 2949.5,863.5 2949.5,878.5 2913.5,878.5 2913.5,919.5 
	2892.5,919.5 2892.5,782.5 2866.5,782.5 2866.5,735.5 2844.5,735.5 2844.5,716.5 2827.5,716.5 2827.5,704.5 2777.5,704.5 
	2777.5,716.5 2760.5,716.5 2760.5,735.5 2746.5,735.5 2746.5,782.5 2715.5,782.5 2715.5,811.5 2651.5,811.5 2651.5,794.5 
	2611.5,794.5 2611.5,811.5 2585.5,811.5 2585.5,784.5 2561.5,784.5 2561.5,770.5 2535.5,770.5 2535.5,780.5 2497.5,780.5 
	2497.5,766.5 2391.5,766.5 2391.5,780.5 2380.5,780.5 2380.5,878.5 2338.5,878.5 2338.5,856.5 2297.5,856.5 2297.5,720.9 
	2266.5,689.7 2266.5,673.2 2266.5,604.5 2245.5,604.5 2245.5,573.5 2235.5,573.5 2235.5,604.5 2210.5,604.5 2210.5,673.5 
	2187.5,673.5 2187.5,857.5 2166.5,857.5 2166.5,909.5 2120.5,909.5 2120.5,833.5 2092.5,833.5 2092.5,701.5 2069.5,701.5 
	2069.5,684.5 2023.5,684.5 2023.5,813.5 1979.5,813.5 1979.5,836.5 1910.5,836.5 1910.5,829.5 1894.5,829.5 1894.5,795.5 
	1877.5,795.5 1877.5,782.5 1864.5,782.5 1864.5,773.5 1828.5,773.5 1828.5,782.5 1815.5,782.5 1815.5,795.5 1806.5,795.5 
	1806.5,829.5 1784.5,829.5 1784.5,922.5 1712.5,922.5 1712.5,837.5 1701.5,837.5 1701.5,826.5 1677.5,826.5 1677.5,840.5 
	1655.5,840.5 1655.5,864.5 1631.5,864.5 1631.5,849.5 1593.5,849.5 1593.5,864.5 1535.5,864.5 1535.5,921.5 1535.5,1103.5 
	1911.2,1103.5 2167,1103.5 2416.7,1103.5 3204.5,1103.5 3204.5,1094.9 3204.5,922.5 "/>
<polygon fill="#58707A" points="4814.5,918.5 4814.5,909.5 4772.5,909.5 4772.5,915.5 4762.5,915.5 4762.5,866.5 4642.5,866.5 
	4642.5,859.5 4627.5,859.5 4627.5,828.5 4583.5,828.5 4583.5,859.5 4573.5,859.5 4573.5,874.5 4537.5,874.5 4537.5,915.5 
	4516.5,915.5 4516.5,778.5 4490.5,778.5 4490.5,731.5 4468.5,731.5 4468.5,712.5 4451.5,712.5 4451.5,700.5 4401.5,700.5 
	4401.5,712.5 4384.5,712.5 4384.5,731.5 4370.5,731.5 4370.5,778.5 4339.5,778.5 4339.5,807.5 4275.5,807.5 4275.5,790.5 
	4235.5,790.5 4235.5,807.5 4209.5,807.5 4209.5,780.5 4185.5,780.5 4185.5,766.5 4159.5,766.5 4159.5,776.5 4121.5,776.5 
	4121.5,762.5 4015.5,762.5 4015.5,776.5 4004.5,776.5 4004.5,874.5 3962.5,874.5 3962.5,852.5 3921.5,852.5 3921.5,716.9 
	3890.5,685.7 3890.5,669.2 3890.5,600.5 3869.5,600.5 3869.5,569.5 3859.5,569.5 3859.5,600.5 3834.5,600.5 3834.5,669.5 
	3811.5,669.5 3811.5,853.5 3790.5,853.5 3790.5,905.5 3744.5,905.5 3744.5,829.5 3716.5,829.5 3716.5,697.5 3693.5,697.5 
	3693.5,680.5 3647.5,680.5 3647.5,809.5 3603.5,809.5 3603.5,832.5 3534.5,832.5 3534.5,825.5 3518.5,825.5 3518.5,791.5 
	3501.5,791.5 3501.5,778.5 3488.5,778.5 3488.5,769.5 3452.5,769.5 3452.5,778.5 3439.5,778.5 3439.5,791.5 3430.5,791.5 
	3430.5,825.5 3408.5,825.5 3408.5,918.5 3336.5,918.5 3336.5,833.5 3325.5,833.5 3325.5,822.5 3301.5,822.5 3301.5,836.5 
	3279.5,836.5 3279.5,860.5 3255.5,860.5 3255.5,845.5 3217.5,845.5 3217.5,860.5 3159.5,860.5 3159.5,917.5 3159.5,1099.5 
	3535.2,1099.5 3791,1099.5 4040.7,1099.5 4828.5,1099.5 4828.5,1090.9 4828.5,918.5 "/>
<polygon fill="#58707A" points="1654.5,905.5 1654.5,896.5 1612.5,896.5 1612.5,902.5 1602.5,902.5 1602.5,736.5 1482.5,736.5 
	1482.5,729.5 1467.5,729.5 1467.5,815.5 1423.5,815.5 1423.5,846.5 1413.5,846.5 1413.5,861.5 1377.5,861.5 1377.5,902.5 
	1356.5,902.5 1356.5,765.5 1330.5,765.5 1330.5,718.5 1308.5,718.5 1308.5,699.5 1291.5,699.5 1291.5,687.5 1241.5,687.5 
	1241.5,699.5 1224.5,699.5 1224.5,718.5 1210.5,718.5 1210.5,765.5 1179.5,765.5 1179.5,794.5 1115.5,794.5 1115.5,777.5 
	1075.5,777.5 1075.5,794.5 1049.5,794.5 1049.5,767.5 1025.5,767.5 1025.5,753.5 999.5,753.5 999.5,763.5 961.5,763.5 961.5,749.5 
	855.5,749.5 855.5,763.5 844.5,763.5 844.5,861.5 802.5,861.5 802.5,839.5 761.5,839.5 761.5,703.9 730.5,672.7 730.5,656.2 
	730.5,587.5 709.5,587.5 709.5,556.5 699.5,556.5 699.5,587.5 674.5,587.5 674.5,656.5 651.5,656.5 651.5,840.5 630.5,840.5 
	630.5,892.5 584.5,892.5 584.5,816.5 556.5,816.5 556.5,684.5 533.5,684.5 533.5,667.5 487.5,667.5 487.5,796.5 443.5,796.5 
	443.5,819.5 374.5,819.5 374.5,812.5 358.5,812.5 358.5,778.5 341.5,778.5 341.5,765.5 328.5,765.5 328.5,756.5 292.5,756.5 
	292.5,765.5 279.5,765.5 279.5,778.5 270.5,778.5 270.5,812.5 248.5,812.5 248.5,905.5 176.5,905.5 176.5,820.5 165.5,820.5 
	165.5,809.5 141.5,809.5 141.5,823.5 119.5,823.5 119.5,847.5 95.5,847.5 95.5,832.5 57.5,832.5 57.5,847.5 -0.5,847.5 -0.5,904.5 
	-0.5,1086.5 375.2,1086.5 631,1086.5 880.7,1086.5 1668.5,1086.5 1668.5,1077.9 1668.5,905.5 "/>
</svg>
