<?xml version="1.0" encoding="utf-8"?>
<!-- Generator: Adobe Illustrator 18.0.0, SVG Export Plug-In . SVG Version: 6.00 Build 0)  -->
<!DOCTYPE svg PUBLIC "-//W3C//DTD SVG 1.1//EN" "http://www.w3.org/Graphics/SVG/1.1/DTD/svg11.dtd">
<svg version="1.1" id="far-buildings" xmlns="http://www.w3.org/2000/svg" xmlns:xlink="http://www.w3.org/1999/xlink" x="0px"
	 y="0px" viewBox="0 0 4823.5 1026" enable-background="new 0 0 4823.5 1026" xml:space="preserve">
<polygon fill="#58707A" points="4814.5,407.6 4814.5,398.6 4772.5,398.6 4772.5,404.6 4762.5,404.6 4762.5,355.6 4642.5,355.6 
	4642.5,348.6 4627.5,348.6 4627.5,317.6 4583.5,317.6 4583.5,348.6 4573.5,348.6 4573.5,363.6 4537.5,363.6 4537.5,404.6 
	4516.5,404.6 4516.5,267.6 4490.5,267.6 4490.5,220.6 4468.5,220.6 4468.5,201.6 4451.5,201.6 4451.5,189.6 4401.5,189.6 
	4401.5,201.6 4384.5,201.6 4384.5,220.6 4370.5,220.6 4370.5,267.6 4339.5,267.6 4339.5,296.6 4275.5,296.6 4275.5,279.6 
	4235.5,279.6 4235.5,296.6 4209.5,296.6 4209.5,269.6 4185.5,269.6 4185.5,255.6 4159.5,255.6 4159.5,265.6 4121.5,265.6 
	4121.5,251.6 4015.5,251.6 4015.5,265.6 4004.5,265.6 4004.5,363.6 3962.5,363.6 3962.5,341.6 3921.5,341.6 3921.5,206 
	3890.5,174.8 3890.5,158.3 3890.5,89.6 3869.5,89.6 3869.5,58.6 3859.5,58.6 3859.5,89.6 3834.5,89.6 3834.5,158.6 3811.5,158.6 
	3811.5,342.6 3790.5,342.6 3790.5,394.6 3744.5,394.6 3744.5,318.6 3716.5,318.6 3716.5,186.6 3693.5,186.6 3693.5,169.6 
	3647.5,169.6 3647.5,298.6 3603.5,298.6 3603.5,321.6 3534.5,321.6 3534.5,314.6 3518.5,314.6 3518.5,280.6 3501.5,280.6 
	3501.5,267.6 3488.5,267.6 3488.5,258.6 3452.5,258.6 3452.5,267.6 3439.5,267.6 3439.5,280.6 3430.5,280.6 3430.5,314.6 
	3408.5,314.6 3408.5,407.6 3336.5,407.6 3336.5,322.6 3325.5,322.6 3325.5,311.6 3301.5,311.6 3301.5,325.6 3279.5,325.6 
	3279.5,349.6 3255.5,349.6 3255.5,334.6 3217.5,334.6 3217.5,349.6 3159.5,349.6 3159.5,402.6 3148.5,402.6 3148.5,408.6 
	3138.5,408.6 3138.5,359.6 3018.5,359.6 3018.5,352.6 3003.5,352.6 3003.5,321.6 2959.5,321.6 2959.5,352.6 2949.5,352.6 
	2949.5,367.6 2913.5,367.6 2913.5,408.6 2892.5,408.6 2892.5,271.6 2866.5,271.6 2866.5,224.6 2844.5,224.6 2844.5,205.6 
	2827.5,205.6 2827.5,193.6 2777.5,193.6 2777.5,205.6 2760.5,205.6 2760.5,224.6 2746.5,224.6 2746.5,271.6 2715.5,271.6 
	2715.5,300.6 2651.5,300.6 2651.5,283.6 2611.5,283.6 2611.5,300.6 2585.5,300.6 2585.5,273.6 2561.5,273.6 2561.5,259.6 
	2535.5,259.6 2535.5,269.6 2497.5,269.6 2497.5,255.6 2391.5,255.6 2391.5,269.6 2380.5,269.6 2380.5,367.6 2338.5,367.6 
	2338.5,345.6 2297.5,345.6 2297.5,210 2266.5,178.8 2266.5,162.3 2266.5,93.6 2245.5,93.6 2245.5,62.6 2235.5,62.6 2235.5,93.6 
	2210.5,93.6 2210.5,162.6 2187.5,162.6 2187.5,346.6 2166.5,346.6 2166.5,398.6 2120.5,398.6 2120.5,322.6 2092.5,322.6 
	2092.5,190.6 2069.5,190.6 2069.5,173.6 2023.5,173.6 2023.5,302.6 1979.5,302.6 1979.5,325.6 1910.5,325.6 1910.5,318.6 
	1894.5,318.6 1894.5,284.6 1877.5,284.6 1877.5,271.6 1864.5,271.6 1864.5,262.6 1828.5,262.6 1828.5,271.6 1815.5,271.6 
	1815.5,284.6 1806.5,284.6 1806.5,318.6 1784.5,318.6 1784.5,411.6 1712.5,411.6 1712.5,326.6 1701.5,326.6 1701.5,315.6 
	1677.5,315.6 1677.5,329.6 1655.5,329.6 1655.5,353.6 1631.5,353.6 1631.5,338.6 1602.5,338.6 1602.5,225.6 1482.5,225.6 
	1482.5,218.6 1467.5,218.6 1467.5,304.6 1423.5,304.6 1423.5,335.6 1413.5,335.6 1413.5,350.6 1377.5,350.6 1377.5,391.6 
	1356.5,391.6 1356.5,254.6 1330.5,254.6 1330.5,207.6 1308.5,207.6 1308.5,188.6 1291.5,188.6 1291.5,176.6 1241.5,176.6 
	1241.5,188.6 1224.5,188.6 1224.5,207.6 1210.5,207.6 1210.5,254.6 1179.5,254.6 1179.5,283.6 1115.5,283.6 1115.5,266.6 
	1075.5,266.6 1075.5,283.6 1049.5,283.6 1049.5,256.6 1025.5,256.6 1025.5,242.6 999.5,242.6 999.5,252.6 961.5,252.6 961.5,238.6 
	855.5,238.6 855.5,252.6 844.5,252.6 844.5,350.6 802.5,350.6 802.5,328.6 761.5,328.6 761.5,193 730.5,161.8 730.5,145.3 
	730.5,76.6 709.5,76.6 709.5,45.6 699.5,45.6 699.5,76.6 674.5,76.6 674.5,145.6 651.5,145.6 651.5,329.6 630.5,329.6 630.5,381.6 
	584.5,381.6 584.5,305.6 556.5,305.6 556.5,173.6 533.5,173.6 533.5,156.6 487.5,156.6 487.5,285.6 443.5,285.6 443.5,308.6 
	374.5,308.6 374.5,301.6 358.5,301.6 358.5,267.6 341.5,267.6 341.5,254.6 328.5,254.6 328.5,245.6 292.5,245.6 292.5,254.6 
	279.5,254.6 279.5,267.6 270.5,267.6 270.5,301.6 248.5,301.6 248.5,394.6 176.5,394.6 176.5,309.6 165.5,309.6 165.5,298.6 
	141.5,298.6 141.5,312.6 119.5,312.6 119.5,336.6 95.5,336.6 95.5,321.6 57.5,321.6 57.5,336.6 -0.5,336.6 -0.5,393.7 -0.5,1025.6 
	375.2,1025.6 631,1025.6 880.7,1025.6 1535.5,1025.6 1668.5,1025.6 1911.2,1025.6 2167,1025.6 2416.7,1025.6 3159.5,1025.6 
	3204.5,1025.6 3535.2,1025.6 3791,1025.6 4040.7,1025.6 4823.5,1025.6 4823.5,407.6 "/>
</svg>
