<?xml version="1.0" encoding="utf-8"?>
<!-- Generator: Adobe Illustrator 18.0.0, SVG Export Plug-In . SVG Version: 6.00 Build 0)  -->
<!DOCTYPE svg PUBLIC "-//W3C//DTD SVG 1.1//EN" "http://www.w3.org/Graphics/SVG/1.1/DTD/svg11.dtd">
<svg version="1.1" id="front-clouds" xmlns="http://www.w3.org/2000/svg" xmlns:xlink="http://www.w3.org/1999/xlink" x="0px"
	 y="0px" viewBox="0 0 4823.5 1026" enable-background="new 0 0 4823.5 1026" xml:space="preserve">
<path fill="#FFFFFF" d="M2946.7,161c-3.4-10.2-13-17.6-24.4-17.6c-4.5,0-8.7,1.1-12.3,3.1c-2.6-10.9-12.4-19.1-24.1-19.1
	c-7.8,0-14.8,3.6-19.3,9.3c-4-2.2-8.6-3.4-13.5-3.4c-15.8,0-28.6,12.8-28.6,28.6c0,2.3,0.3,4.5,0.8,6.6c-7.1,4-11.8,11.7-11.8,20.5
	c0,12.9,10.5,23.5,23.4,23.5h106.7v-0.3c1,0.1,1.5,0.1,2.3,0.1c14.2,0,25.6-11.5,25.6-25.7C2971.5,172.8,2960.4,161.5,2946.7,161z"
	/>
<path fill="#FFFFFF" d="M1583.1,37c3.4-10.2,13-17.6,24.4-17.6c4.5,0,8.7,1.1,12.3,3.1c2.6-10.9,12.4-19.1,24.1-19.1
	c7.8,0,14.8,3.6,19.3,9.3c4-2.2,8.6-3.4,13.5-3.4c15.8,0,28.6,12.8,28.6,28.6c0,2.3-0.3,4.5-0.8,6.6c7.1,4,11.8,11.7,11.8,20.5
	c0,12.9-10.5,23.5-23.4,23.5h-106.5v-0.3c-1,0.1-1.6,0.1-2.4,0.1c-14.2,0-25.7-11.5-25.7-25.7C1558.4,48.8,1569.4,37.5,1583.1,37z"
	/>
</svg>
