<?xml version="1.0" encoding="utf-8"?>
<!-- Generator: Adobe Illustrator 18.0.0, SVG Export Plug-In . SVG Version: 6.00 Build 0)  -->
<!DOCTYPE svg PUBLIC "-//W3C//DTD SVG 1.1//EN" "http://www.w3.org/Graphics/SVG/1.1/DTD/svg11.dtd">
<svg version="1.1" id="Layer_1" xmlns="http://www.w3.org/2000/svg" xmlns:xlink="http://www.w3.org/1999/xlink" x="0px" y="0px"
	 viewBox="0 0 32 32" enable-background="new 0 0 32 32" xml:space="preserve">
<path fill="#FFFFFF" d="M12,12h5.5v2.8h0.1c0.8-1.4,2.7-2.8,5.5-2.8c5.8,0,6.9,3.6,6.9,8.4V30h-5.8v-8.5c0-2,0-4.7-3-4.7
	c-3,0-3.5,2.2-3.5,4.5V30H12V12z"/>
<path fill="#FFFFFF" d="M2,12h6v18H2V12z"/>
<path fill="#FFFFFF" d="M8,7c0,1.7-1.3,3-3,3S2,8.7,2,7s1.3-3,3-3S8,5.3,8,7z"/>
</svg>
