<?xml version="1.0" encoding="utf-8"?>
<!-- Generator: Adobe Illustrator 18.0.0, SVG Export Plug-In . SVG Version: 6.00 Build 0)  -->
<!DOCTYPE svg PUBLIC "-//W3C//DTD SVG 1.1//EN" "http://www.w3.org/Graphics/SVG/1.1/DTD/svg11.dtd">
<svg version="1.1" id="Layer_1" xmlns="http://www.w3.org/2000/svg" xmlns:xlink="http://www.w3.org/1999/xlink" x="0px" y="0px"
	 viewBox="0 0 448.2 477.6" enable-background="new 0 0 448.2 477.6" xml:space="preserve">
<g opacity="3.000000e-002">
	<path fill="none" d="M405.6,13.9C418,6,432.5,1.4,448.2,1.4V0H0v1.5C42.6,3,76.8,37.9,76.8,80.8V134c0,14.5-11.8,26.3-26.3,26.3
		c-14.5,0-26.3-11.8-26.3-26.3V80.8c0-13.9-10.6-25.2-24.2-26.6v423.4h448.2V54c-6.1,0-11.7,2.1-16.3,5.6
		C427.7,41.8,418.4,26,405.6,13.9z M61.1,13.9C73.4,6,88,1.4,103.6,1.4c43.4,0,78.7,35,79.4,78.2v55.6c-0.7,13.9-12.1,25-26.2,25
		c-14.5,0-26.3-11.8-26.3-26.3V80.8c0-14.8-12.1-26.9-26.9-26.9c-6.1,0-11.8,2.1-16.3,5.6C83.1,41.8,73.9,26,61.1,13.9z
		 M195.9,372.3c0,14.5-11.8,26.3-26.3,26.3c-14.5,0-26.3-11.8-26.3-26.3v-53.2c0-14.8-12-26.9-26.9-26.9c-14.8,0-26.8,12-26.9,26.7
		c-0.1,12.5,8.3,23.3,20.5,26.3c14.1,3.4,22.8,17.7,19.3,31.8c-2.9,12-13.7,20.1-25.5,20.1c-2.1,0-4.2-0.2-6.2-0.8
		c-35.3-8.6-59.9-39.5-60.6-75.6c0-0.5-0.1-1-0.1-1.6c0-0.1,0-0.2,0-0.3c0-0.1,0-0.2,0-0.4c0-0.9,0.1-1.8,0.2-2.7
		c1.8-42.2,36.6-76,79.3-76c43.8,0,79.4,35.6,79.4,79.4V372.3z M302.2,372.3c0,14.5-11.8,26.3-26.3,26.3
		c-14.5,0-26.3-11.8-26.3-26.3v-53.2c0-14.8-12.1-26.9-26.9-26.9c-6.1,0-11.8,2.1-16.3,5.6c-4.2-17.7-13.5-33.5-26.3-45.7
		c12.3-7.9,26.9-12.5,42.6-12.5c43.8,0,79.4,35.6,79.4,79.4V372.3z M408.4,373.6c-0.7,13.9-12.1,25-26.2,25
		c-14.5,0-26.3-11.8-26.3-26.3v-53.2c0-14.8-12.1-26.9-26.9-26.9c-6.1,0-11.8,2.1-16.3,5.6c-4.2-17.7-13.5-33.5-26.3-45.7
		c12.3-7.9,26.9-12.5,42.6-12.5c43.4,0,78.7,35,79.4,78.2V373.6z M421.3,134c0,14.5-11.8,26.3-26.3,26.3
		c-14.5,0-26.3-11.8-26.3-26.3V80.8c0-14.8-12-26.9-26.9-26.9c-14.8,0-26.8,12-26.9,26.7c-0.1,12.5,8.3,23.3,20.5,26.3
		c14.1,3.4,22.8,17.7,19.3,31.8c-2.9,12-13.7,20.1-25.5,20.1c-2.1,0-4.2-0.2-6.2-0.8c-35.3-8.6-59.9-39.5-60.6-75.6
		c0-0.5-0.1-1-0.1-1.6c0-0.1,0-0.2,0-0.3c0-0.1,0-0.2,0-0.4c0-0.9,0.1-1.8,0.2-2.7c1.8-42.2,36.6-76,79.3-76
		c43.8,0,79.4,35.6,79.4,79.4V134z"/>
	<path fill="#FFFFFF" d="M103.6,54c14.8,0,26.9,12.1,26.9,26.9V134c0,14.5,11.8,26.3,26.3,26.3c14.1,0,25.6-11.1,26.2-25V79.6
		c-0.7-43.2-36-78.2-79.4-78.2C88,1.4,73.4,6,61.1,13.9C73.9,26,83.1,41.8,87.3,59.6C91.9,56.1,97.5,54,103.6,54z"/>
	<path fill="#FFFFFF" d="M24.2,80.8V134c0,14.5,11.8,26.3,26.3,26.3c14.5,0,26.3-11.8,26.3-26.3V80.8C76.8,37.9,42.6,3,0,1.5v52.7
		C13.5,55.6,24.2,66.9,24.2,80.8z"/>
	<path fill="#FFFFFF" d="M405.6,13.9c12.8,12.2,22.1,27.9,26.3,45.7c4.5-3.5,10.1-5.6,16.3-5.6V1.4C432.5,1.4,418,6,405.6,13.9z"/>
	<path fill="#FFFFFF" d="M341.9,1.4c-42.7,0-77.5,33.8-79.3,76c-0.1,0.9-0.2,1.8-0.2,2.7c0,0.1,0,0.2,0,0.4c0,0.1,0,0.2,0,0.3
		c0,0.5,0,1,0.1,1.6c0.7,36.1,25.3,67,60.6,75.6c2.1,0.5,4.2,0.8,6.2,0.8c11.8,0,22.6-8.1,25.5-20.1c3.4-14.1-5.2-28.3-19.3-31.8
		c-12.2-3-20.6-13.8-20.5-26.3c0.1-14.7,12.1-26.7,26.9-26.7c14.8,0,26.9,12,26.9,26.9V134c0,14.5,11.8,26.3,26.3,26.3
		c14.5,0,26.3-11.8,26.3-26.3V80.8C421.3,37,385.7,1.4,341.9,1.4z"/>
	<path fill="#FFFFFF" d="M329.1,239.7c-15.7,0-30.2,4.6-42.6,12.5c12.8,12.2,22.1,27.9,26.3,45.7c4.5-3.5,10.2-5.6,16.3-5.6
		c14.8,0,26.9,12.1,26.9,26.9v53.2c0,14.5,11.8,26.3,26.3,26.3c14.1,0,25.6-11.1,26.2-25v-55.6C407.8,274.7,372.5,239.7,329.1,239.7
		z"/>
	<path fill="#FFFFFF" d="M222.8,239.7c-15.7,0-30.2,4.6-42.6,12.5c12.8,12.2,22.1,27.9,26.3,45.7c4.5-3.5,10.2-5.6,16.3-5.6
		c14.8,0,26.9,12.1,26.9,26.9v53.2c0,14.5,11.8,26.3,26.3,26.3c14.5,0,26.3-11.8,26.3-26.3v-53.2
		C302.2,275.4,266.6,239.7,222.8,239.7z"/>
	<path fill="#FFFFFF" d="M116.5,239.7c-42.7,0-77.5,33.8-79.3,76c-0.1,0.9-0.2,1.8-0.2,2.7c0,0.1,0,0.2,0,0.4c0,0.1,0,0.2,0,0.3
		c0,0.5,0,1,0.1,1.6c0.7,36.1,25.3,67,60.6,75.6c2.1,0.5,4.2,0.8,6.2,0.8c11.8,0,22.6-8.1,25.5-20.1c3.4-14.1-5.2-28.3-19.3-31.8
		c-12.2-3-20.6-13.8-20.5-26.3c0.1-14.7,12.1-26.7,26.9-26.7c14.8,0,26.9,12,26.9,26.9v53.2c0,14.5,11.8,26.3,26.3,26.3
		c14.5,0,26.3-11.8,26.3-26.3v-53.2C195.9,275.4,160.3,239.7,116.5,239.7z"/>
</g>
</svg>
