<?xml version="1.0" encoding="utf-8"?>
<!-- Generator: Adobe Illustrator 18.0.0, SVG Export Plug-In . SVG Version: 6.00 Build 0)  -->
<!DOCTYPE svg PUBLIC "-//W3C//DTD SVG 1.1//EN" "http://www.w3.org/Graphics/SVG/1.1/DTD/svg11.dtd">
<svg version="1.1" id="Layer_1" xmlns="http://www.w3.org/2000/svg" xmlns:xlink="http://www.w3.org/1999/xlink" x="0px" y="0px"
	 viewBox="0 0 99.8 46" enable-background="new 0 0 99.8 46" xml:space="preserve">
<path fill="#FFFFFF" d="M78.1,0C73,0,68.4,1.8,64.6,4.7c3.9,3.5,6.5,8.2,7.4,13.6c1.2-2.2,3.8-3.6,6.4-3.6c3.9,0,7.3,3.2,7.3,7v17
	c0,4,3,7.3,7,7.3c4,0,7-3.3,7-7.3v-17C99.8,9.7,90.1,0,78.1,0z"/>
<path fill="#FFFFFF" d="M49.6,0c-4.8,0-9.1,1.6-12.7,4.3c0.5,0.4,1.1,0.8,1.6,1.3c3.2,3.2,5.4,7.2,6.2,11.5c1.3-1.5,3.5-2.4,5.7-2.4
	c3.9,0,7.4,3.2,7.4,7v17c0,4,2.5,7.3,6.5,7.3c4,0,6.5-3.3,6.5-7.3v-17C70.8,9.7,61.6,0,49.6,0z"/>
<path fill="#EB0029" d="M36.3,46c-4,0-7.5-3.3-7.5-7.3V21.8c0-3.9-3.2-7.1-7.1-7.1s-7.1,3.2-7.1,7.1c0,3.5,2.2,7.1,6.4,7.1
	c4,0,7.3,3.3,7.3,7.3s-3.3,7.3-7.3,7.3c-5.9,0-11.3-2.3-15.2-6.6C2.1,32.9,0,27.5,0,21.8c0-5.8,2.3-11.3,6.3-15.4
	C10.4,2.3,15.9,0,21.7,0s11.4,2.3,15.5,6.4c4.1,4.1,6.5,9.6,6.5,15.4v16.9C43.8,42.7,40.3,46,36.3,46z"/>
<g>
	<defs>
		<path id="SVGID_1_" d="M78.1,0C73,0,68.4,1.8,64.6,4.7c3.9,3.5,6.5,8.2,7.4,13.6c1.2-2.2,3.8-3.6,6.4-3.6c3.9,0,7.3,3.2,7.3,7v17
			c0,4,3,7.3,7,7.3c4,0,7-3.3,7-7.3v-17C99.8,9.7,90.1,0,78.1,0z"/>
	</defs>
	<clipPath id="SVGID_2_">
		<use xlink:href="#SVGID_1_"  overflow="visible"/>
	</clipPath>
	<path opacity="0.5" clip-path="url(#SVGID_2_)" fill="#646569" d="M63.9,3.8L64.3,19l9.2,3.2l1.6-3.4C73.3,9,63.9,3.8,63.9,3.8z"/>
</g>
<g>
	<defs>
		<path id="SVGID_3_" d="M49.6,0c-4.8,0-9.1,1.6-12.7,4.3c0.5,0.4,1.1,0.8,1.6,1.3c3.2,3.2,5.4,7.2,6.2,11.5
			c1.3-1.5,3.5-2.4,5.7-2.4c3.9,0,7.4,3.2,7.4,7v17c0,4,2.5,7.3,6.5,7.3c4,0,6.5-3.3,6.5-7.3v-17C70.8,9.7,61.6,0,49.6,0z"/>
	</defs>
	<clipPath id="SVGID_4_">
		<use xlink:href="#SVGID_3_"  overflow="visible"/>
	</clipPath>
	<path opacity="0.5" clip-path="url(#SVGID_4_)" fill="#646569" d="M37.2,3.8l-10-4.7l19.6,23.1l1.7-3.4C46.6,9,37.2,3.8,37.2,3.8z"
		/>
</g>
</svg>
