<?xml version="1.0" encoding="utf-8"?>
<!-- Generator: Adobe Illustrator 18.0.0, SVG Export Plug-In . SVG Version: 6.00 Build 0)  -->
<!DOCTYPE svg PUBLIC "-//W3C//DTD SVG 1.1//EN" "http://www.w3.org/Graphics/SVG/1.1/DTD/svg11.dtd">
<svg version="1.1" id="Layer_1" xmlns="http://www.w3.org/2000/svg" xmlns:xlink="http://www.w3.org/1999/xlink" x="0px" y="0px"
	 viewBox="0 0 45.5 55.4" enable-background="new 0 0 45.5 55.4" xml:space="preserve" preserveAspectRatio="none slice">
<g>
	<path fill="#0F0F12" d="M9.6,0C7.9,0,6.3,0.6,5.1,1.6c1.3,1.2,2.2,2.7,2.4,4.5c0.4-0.7,1.2-1.2,2.1-1.2c1.3,0,2.4,1.1,2.4,2.4v5.7
		c0,1.3,1.1,2.4,2.4,2.4c1.3,0,2.4-1.1,2.4-2.4V7.2C16.9,3.2,13.6,0,9.6,0z"/>
	<path fill="#0F0F12" d="M0,0c-1.6,0-3.1,0.5-4.3,1.4C-4.2,1.6-4,1.7-3.8,1.9c1.1,1.1,1.8,2.4,2.1,3.8C-1.4,5.2-0.7,4.9,0,4.9
		c1.3,0,2.4,1.1,2.4,2.4v5.7c0,1.3,1.1,2.4,2.4,2.4c1.3,0,2.4-1.1,2.4-2.4V7.2C7.2,3.2,4,0,0,0z"/>
</g>
<g>
	<path fill="#0F0F12" d="M45.5,0c-1.6,0-3.1,0.5-4.3,1.4c0.2,0.1,0.3,0.3,0.5,0.4c1.1,1.1,1.8,2.4,2.1,3.8c0.4-0.5,1.1-0.8,1.8-0.8
		c1.3,0,2.4,1.1,2.4,2.4v5.7c0,1.3,1.1,2.4,2.4,2.4c1.3,0,2.4-1.1,2.4-2.4V7.2C52.8,3.2,49.5,0,45.5,0z"/>
	<path fill="#0F0F12" d="M36.3,0c-1.9,0-3.8,0.8-5.1,2.1c-1.4,1.4-2.1,3.2-2.1,5.1c0,1.9,0.7,3.7,1.9,5.1c1.3,1.4,3.1,2.2,5.1,2.2
		c1.3,0,2.4-1.1,2.4-2.4s-1.1-2.4-2.4-2.4c-1.4,0-2.1-1.2-2.1-2.4c0-1.3,1.1-2.4,2.4-2.4s2.4,1.1,2.4,2.4v5.6c0,1.3,1.1,2.4,2.4,2.4
		c1.3,0,2.4-1.1,2.4-2.4V7.2c0-1.9-0.8-3.8-2.1-5.1C40.1,0.8,38.2,0,36.3,0z"/>
</g>
<g>
	<path fill="#0F0F12" d="M32.2,27.7c-1.7,0-3.3,0.6-4.5,1.6c1.3,1.2,2.2,2.7,2.4,4.5c0.4-0.7,1.2-1.2,2.1-1.2c1.3,0,2.4,1.1,2.4,2.4
		v5.7c0,1.3,1.1,2.4,2.4,2.4c1.3,0,2.4-1.1,2.4-2.4v-5.7C39.4,30.9,36.2,27.7,32.2,27.7z"/>
	<path fill="#0F0F12" d="M22.6,27.7c-1.6,0-3.1,0.5-4.3,1.4c0.2,0.1,0.3,0.3,0.5,0.4c1.1,1.1,1.8,2.4,2.1,3.8
		c0.4-0.5,1.1-0.8,1.8-0.8c1.3,0,2.4,1.1,2.4,2.4v5.7c0,1.3,1.1,2.4,2.4,2.4c1.3,0,2.4-1.1,2.4-2.4v-5.7
		C29.8,30.9,26.6,27.7,22.6,27.7z"/>
	<path fill="#0F0F12" d="M13.3,27.7c-1.9,0-3.8,0.8-5.1,2.1C6.8,31.2,6.1,33,6.1,35c0,1.9,0.7,3.7,1.9,5.1c1.3,1.4,3.1,2.2,5.1,2.2
		c1.3,0,2.4-1.1,2.4-2.4c0-1.3-1.1-2.4-2.4-2.4c-1.4,0-2.1-1.2-2.1-2.4c0-1.3,1.1-2.4,2.4-2.4s2.4,1.1,2.4,2.4v5.6
		c0,1.3,1.1,2.4,2.4,2.4c1.3,0,2.4-1.1,2.4-2.4V35c0-1.9-0.8-3.8-2.1-5.1C17.1,28.5,15.3,27.7,13.3,27.7z"/>
</g>
<g>
	<path fill="#0F0F12" d="M9.6,55.4c-1.7,0-3.3,0.6-4.5,1.6c1.3,1.2,2.2,2.7,2.4,4.5c0.4-0.7,1.2-1.2,2.1-1.2c1.3,0,2.4,1.1,2.4,2.4
		v5.7c0,1.3,1.1,2.4,2.4,2.4c1.3,0,2.4-1.1,2.4-2.4v-5.7C16.9,58.7,13.6,55.4,9.6,55.4z"/>
	<path fill="#0F0F12" d="M0,55.4c-1.6,0-3.1,0.5-4.3,1.4c0.2,0.1,0.3,0.3,0.5,0.4c1.1,1.1,1.8,2.4,2.1,3.8c0.4-0.5,1.1-0.8,1.8-0.8
		c1.3,0,2.4,1.1,2.4,2.4v5.7c0,1.3,1.1,2.4,2.4,2.4c1.3,0,2.4-1.1,2.4-2.4v-5.7C7.2,58.7,4,55.4,0,55.4z"/>
</g>
<g>
	<path fill="#0F0F12" d="M45.5,55.4c-1.6,0-3.1,0.5-4.3,1.4c0.2,0.1,0.3,0.3,0.5,0.4c1.1,1.1,1.8,2.4,2.1,3.8
		c0.4-0.5,1.1-0.8,1.8-0.8c1.3,0,2.4,1.1,2.4,2.4v5.7c0,1.3,1.1,2.4,2.4,2.4c1.3,0,2.4-1.1,2.4-2.4v-5.7
		C52.8,58.7,49.5,55.4,45.5,55.4z"/>
	<path fill="#0F0F12" d="M36.3,55.4c-1.9,0-3.8,0.8-5.1,2.1c-1.4,1.4-2.1,3.2-2.1,5.1c0,1.9,0.7,3.7,1.9,5.1
		c1.3,1.4,3.1,2.2,5.1,2.2c1.3,0,2.4-1.1,2.4-2.4S37.4,65,36.1,65c-1.4,0-2.1-1.2-2.1-2.4c0-1.3,1.1-2.4,2.4-2.4s2.4,1.1,2.4,2.4
		v5.6c0,1.3,1.1,2.4,2.4,2.4c1.3,0,2.4-1.1,2.4-2.4v-5.6c0-1.9-0.8-3.8-2.1-5.1C40.1,56.2,38.2,55.4,36.3,55.4z"/>
</g>
</svg>
