<?xml version="1.0" encoding="utf-8"?>
<!-- Generator: Adobe Illustrator 18.0.0, SVG Export Plug-In . SVG Version: 6.00 Build 0)  -->
<!DOCTYPE svg PUBLIC "-//W3C//DTD SVG 1.1//EN" "http://www.w3.org/Graphics/SVG/1.1/DTD/svg11.dtd">
<svg version="1.1" id="Layer_1" xmlns="http://www.w3.org/2000/svg" xmlns:xlink="http://www.w3.org/1999/xlink" x="0px" y="0px"
	 viewBox="0 0 1302.8 557.2" enable-background="new 0 0 1302.8 557.2" xml:space="preserve">
<g>
	<g>
		<g>
			<path fill="#FFFFFF" d="M1024.2,0c-54.9,0-106,16.2-149.2,43.7c44.8,42.7,77.4,98,92.1,160.2c15.9-12.2,35.6-19.6,57.1-19.6
				c51.9,0,94.2,42.3,94.2,94.2V465c0,50.9,41.3,92.2,92.2,92.2s92.2-41.3,92.2-92.2V278.6C1302.8,125,1177.8,0,1024.2,0z"/>
		</g>
		<g>
			<path fill="#FFFFFF" d="M651.4,0c-54.9,0-106,16.2-149.2,43.7c44.8,42.7,77.4,98,92.1,160.2c15.9-12.2,35.6-19.6,57.1-19.6
				c51.9,0,94.2,42.3,94.2,94.2V465c0,50.9,41.3,92.2,92.2,92.2c50.9,0,92.2-41.3,92.2-92.2V278.6C930,125,805,0,651.4,0z"/>
		</g>
		<path fill="#EB0029" d="M278.6,0C129,0,7,118.6,0.6,266.6c-0.4,3.2-0.6,6.4-0.6,9.6c0,0.4,0,0.8,0,1.3c0,0.4-0.1,0.8-0.1,1.1
			c0,1.9,0.2,3.7,0.3,5.5c2.3,126.6,88.6,235.1,212.4,265.2c7.3,1.8,14.7,2.6,21.9,2.6c41.5,0,79.2-28.3,89.5-70.4
			c12-49.5-18.3-99.3-67.8-111.4c-42.7-10.4-72.3-48.3-71.9-92.1c0.3-51.7,42.4-93.7,94.2-93.7c51.9,0,94.2,42.3,94.2,94.2V465
			c0,50.9,41.3,92.2,92.2,92.2s92.2-41.3,92.2-92.2V278.6C557.2,125,432.2,0,278.6,0z"/>
	</g>
</g>
</svg>
