<?xml version="1.0" encoding="utf-8"?>
<!-- Generator: Adobe Illustrator 18.0.0, SVG Export Plug-In . SVG Version: 6.00 Build 0)  -->
<!DOCTYPE svg PUBLIC "-//W3C//DTD SVG 1.1//EN" "http://www.w3.org/Graphics/SVG/1.1/DTD/svg11.dtd">
<svg version="1.1" id="Layer_1" xmlns="http://www.w3.org/2000/svg" xmlns:xlink="http://www.w3.org/1999/xlink" x="0px" y="0px"
	 viewBox="0 0 250 250" enable-background="new 0 0 250 250" xml:space="preserve">
<g>
	<g>
		<line fill="#FFFFFF" x1="22.5" y1="217.9" x2="233.3" y2="217.9"/>
		<path fill="#EB0029" d="M231.2,223.9h-211c-1.8,0-3.2-2.2-3.2-4s1.5-4,3.2-4h211c1.8,0,3.2,2.2,3.2,4S233,223.9,231.2,223.9z"/>
	</g>
	<g>
		<rect x="110.2" y="206.2" fill="#FFFFFF" width="29.7" height="29.7"/>
		<path d="M139.8,239.1h-29.7c-1.8,0-3.2-1.5-3.2-3.2v-29.7c0-1.8,1.5-3.2,3.2-3.2h29.7c1.8,0,3.2,1.5,3.2,3.2v29.7
			C143.1,237.7,141.6,239.1,139.8,239.1z M113.4,232.6h23.2v-23.2h-23.2V232.6z"/>
	</g>
	<g>
		<g>
			<circle fill="#EB0029" cx="13.5" cy="222.7" r="13.2"/>
		</g>
		<g>
			<circle fill="#EB0029" cx="236.5" cy="222.7" r="13.2"/>
		</g>
	</g>
	<g>
		<g>
			<path fill="#FFFFFF" d="M159.8,38.1H90.2l-30.6,65.7l65.5,89.5l65.5-89.2L159.8,38.1z M124.9,107.5c-9.1,0-16.5-7.4-16.5-16.5
				c0-9.1,7.4-16.5,16.5-16.5c9.1,0,16.5,7.4,16.5,16.5C141.4,100.1,134,107.5,124.9,107.5z"/>
			<path d="M125,196.1C125,196.1,125,196.1,125,196.1c-1,0-2-0.5-2.6-1.3l-65.5-89.9c-0.7-0.9-0.8-2.2-0.3-3.3l30.6-66.5
				c0.5-1.2,1.7-1.9,2.9-1.9h69.7c1.3,0,2.4,0.7,2.9,1.9l30.6,66.6c0.5,1.1,0.4,2.3-0.3,3.3l-65.5,89.8
				C127,195.6,126,196.1,125,196.1z M63.3,102.6l61.7,84.8l61.7-84.7l-29-63H92.2L63.3,102.6z M124.9,110.8
				c-10.9,0-19.8-8.9-19.8-19.8c0-10.9,8.9-19.8,19.8-19.8s19.8,8.9,19.8,19.8C144.7,101.9,135.8,110.8,124.9,110.8z M124.9,77.7
				c-7.3,0-13.3,6-13.3,13.3s6,13.3,13.3,13.3c7.3,0,13.3-6,13.3-13.3S132.2,77.7,124.9,77.7z"/>
		</g>
	</g>
	<g>
		<path d="M126.9,193.9c-1.8,0-2.5-1.5-2.5-3.2v-82.8c0-1.8,0.7-3.2,2.5-3.2s2.5,1.5,2.5,3.2v82.8
			C129.4,192.4,128.7,193.9,126.9,193.9z"/>
	</g>
	<g>
		<rect x="65.6" y="14.1" fill="#FFFFFF" width="118.7" height="32.3"/>
		<path d="M184.4,49.7H65.6c-1.8,0-3.2-1.5-3.2-3.2V14.1c0-1.8,1.5-3.2,3.2-3.2h118.7c1.8,0,3.2,1.5,3.2,3.2v32.3
			C187.6,48.2,186.1,49.7,184.4,49.7z M68.9,43.2h112.2V17.4H68.9V43.2z"/>
	</g>
</g>
</svg>
