<?xml version="1.0" encoding="utf-8"?>
<!-- Generator: Adobe Illustrator 18.0.0, SVG Export Plug-In . SVG Version: 6.00 Build 0)  -->
<!DOCTYPE svg PUBLIC "-//W3C//DTD SVG 1.1//EN" "http://www.w3.org/Graphics/SVG/1.1/DTD/svg11.dtd">
<svg version="1.1" id="mid-clouds" xmlns="http://www.w3.org/2000/svg" xmlns:xlink="http://www.w3.org/1999/xlink" x="0px" y="0px"
	 viewBox="0 0 4823.5 1407.9" enable-background="new 0 0 4823.5 1407.9" xml:space="preserve">
<g>
	<path fill="#FFFFFF" d="M1876.4,710c-1.2-6-5.6-10.9-11.3-12.8c-1.2-9.2-9-16.3-18.5-16.3c-9.6,0-17.5,7.2-18.5,16.5
		c-2.8-6.2-9-10.5-16.3-10.5c-9.8,0-17.8,8-17.8,17.8c0,2.5,0.5,4.9,1.5,7.1c-7,1.4-12.2,7.8-12.2,15.2c0,8.4,6.8,15.5,15.3,15.5
		h70.1V742c0,0,0.8,0.1,1.3,0.1c9.3,0,16.6-7.5,16.6-16.8C1886.4,718.5,1882.2,712.7,1876.4,710z"/>
	<path fill="#FFFFFF" d="M2542.4,641c-1.2-6-5.6-10.9-11.3-12.8c-1.2-9.2-9-16.3-18.5-16.3c-9.6,0-17.5,7.2-18.5,16.5
		c-2.8-6.2-9-10.5-16.3-10.5c-9.8,0-17.8,8-17.8,17.8c0,2.5,0.5,4.9,1.5,7.1c-7,1.4-12.2,7.8-12.2,15.2c0,8.4,6.8,15.5,15.3,15.5
		h70.1V673c0,0,0.8,0.1,1.3,0.1c9.3,0,16.6-7.5,16.6-16.8C2552.4,649.5,2548.2,643.7,2542.4,641z"/>
</g>
<g>
	<path fill="#FFFFFF" d="M4139.2,672c1.2-6,5.6-10.9,11.3-12.8c1.2-9.2,9-16.3,18.5-16.3c9.6,0,17.5,7.2,18.5,16.5
		c2.8-6.2,9-10.5,16.3-10.5c9.8,0,17.8,8,17.8,17.8c0,2.5-0.5,4.9-1.5,7.1c7,1.4,12.2,7.8,12.2,15.2c0,8.4-6.8,15.5-15.3,15.5h-69.6
		V704c0,0-1,0.1-1.5,0.1c-9.3,0-16.7-7.5-16.7-16.8C4129.3,680.5,4133.4,674.7,4139.2,672z"/>
	<path fill="#FFFFFF" d="M3473.2,645c1.2-6,5.6-10.9,11.3-12.8c1.2-9.2,9-16.3,18.5-16.3c9.6,0,17.5,7.2,18.5,16.5
		c2.8-6.2,9-10.5,16.3-10.5c9.8,0,17.8,8,17.8,17.8c0,2.5-0.5,4.9-1.5,7.1c7,1.4,12.2,7.8,12.2,15.2c0,8.4-6.8,15.5-15.3,15.5h-69.6
		V677c0,0-1,0.1-1.5,0.1c-9.3,0-16.7-7.5-16.7-16.8C3463.3,653.5,3467.4,647.7,3473.2,645z"/>
</g>
<g>
	<path fill="#FFFFFF" d="M1019.2,675c1.2-6,5.6-10.9,11.3-12.8c1.2-9.2,9-16.3,18.5-16.3c9.6,0,17.5,7.2,18.5,16.5
		c2.8-6.2,9-10.5,16.3-10.5c9.8,0,17.8,8,17.8,17.8c0,2.5-0.5,4.9-1.5,7.1c7,1.4,12.2,7.8,12.2,15.2c0,8.4-6.8,15.5-15.3,15.5h-69.6
		V707c0,0-1,0.1-1.5,0.1c-9.3,0-16.7-7.5-16.7-16.8C1009.3,683.5,1013.4,677.7,1019.2,675z"/>
	<path fill="#FFFFFF" d="M353.2,606c1.2-6,5.6-10.9,11.3-12.8c1.2-9.2,9-16.3,18.5-16.3c9.6,0,17.5,7.2,18.5,16.5
		c2.8-6.2,9-10.5,16.3-10.5c9.8,0,17.8,8,17.8,17.8c0,2.5-0.5,4.9-1.5,7.1c7,1.4,12.2,7.8,12.2,15.2c0,8.4-6.8,15.5-15.3,15.5h-69.6
		V638c0,0-1,0.1-1.5,0.1c-9.3,0-16.7-7.5-16.7-16.8C343.3,614.5,347.4,608.7,353.2,606z"/>
</g>
</svg>
