<?xml version="1.0" encoding="utf-8"?>
<!-- Generator: Adobe Illustrator 18.0.0, SVG Export Plug-In . SVG Version: 6.00 Build 0)  -->
<!DOCTYPE svg PUBLIC "-//W3C//DTD SVG 1.1//EN" "http://www.w3.org/Graphics/SVG/1.1/DTD/svg11.dtd">
<svg version="1.1" id="slogan" xmlns="http://www.w3.org/2000/svg" xmlns:xlink="http://www.w3.org/1999/xlink" x="0px" y="0px"
	 viewBox="0 0 4823.5 2192.4" enable-background="new 0 0 4823.5 2192.4" xml:space="preserve">
<g>
	<g>
		<path fill="#FFFFFF" d="M1811.7,362.6v-84.7h6.4v84.7H1811.7z"/>
		<path fill="#FFFFFF" d="M1957.5,362.6v-35.8c0-11.5-7.7-19.6-19.1-19.6c-11.4,0-19.2,8.5-19.2,20v35.5h-5.9v-35.5
			c0-11.5-7.9-19.9-19.2-19.9c-11.4,0-19.1,8.4-19.1,19.9v35.5h-5.9v-59.8h5.6l0.1,9.9c4.1-7.9,11.7-11.1,19.5-11.1
			c9.1,0,18.6,4.1,22.2,14.8c3.6-9.8,13-14.8,22.2-14.8c14.6,0,25.1,10.3,25.1,25.2v35.8H1957.5z"/>
		<path fill="#FFFFFF" d="M2037.7,302.8c0,20,0,39.8,0,59.8h-5.9v-12.7c-5.8,9.3-14.8,13.7-24.5,13.7c-16.7,0-30.4-12.6-30.4-30.9
			s13.7-30.6,30.4-30.6c9.7,0,19.5,4.5,24.5,13.8v-13.1H2037.7z M1982.8,332.7c0,15,10.9,25.1,24.5,25.1c33.3,0,33.3-50,0-50
			C1993.7,307.8,1982.8,317.7,1982.8,332.7z"/>
		<path fill="#FFFFFF" d="M2059.6,277.9v51.1l28.2-26.1h7.9v0.2l-30.3,28l33.8,31.2v0.4h-7.5l-32.1-29.3v29.3h-5.8v-84.7H2059.6z"/>
		<path fill="#FFFFFF" d="M2103.4,332.7c0-17.9,13.6-30.9,30.4-30.9c16.8,0,31.8,10.3,29.5,33.7h-53.9c1.2,14,12,22.2,24.3,22.2
			c7.9,0,17.1-3.1,21.5-9.1l4.2,3.4c-5.8,7.6-16.2,11.5-25.8,11.5C2116.9,363.4,2103.4,351.7,2103.4,332.7z M2158,330.3
			c-0.1-14.8-9.8-23-24.2-23c-12.3,0-23,8.4-24.3,23H2158z"/>
		<path fill="#FFFFFF" d="M2263,302.8l-36.4,84.7h-6.3l11-25.7l-24-59.1h6.4l13.9,35.3l7,17.3l6.9-17.4l15-35.2H2263z"/>
		<path fill="#FFFFFF" d="M2271.8,332.8c0-19,13.6-31.1,30.4-31.1c16.8,0,30.4,12.1,30.4,31.1s-13.6,30.6-30.4,30.6
			C2285.3,363.4,2271.8,351.8,2271.8,332.8z M2326.7,332.8c0-15.5-11-25.5-24.6-25.5c-13.6,0-24.6,10-24.6,25.5s11,24.8,24.6,24.8
			C2315.7,357.6,2326.7,348.3,2326.7,332.8z"/>
		<path fill="#FFFFFF" d="M2394.4,362.6v-10.8c-4.6,8.2-13,11.6-21.3,11.7c-16,0-27-9.8-27-26.4v-34.5h5.9v34.4
			c0,13.6,8.4,20.8,21.3,20.7c12.3-0.1,20.9-9.4,20.9-21.8v-33.3h5.9v59.9H2394.4z"/>
		<path fill="#FFFFFF" d="M2421.4,302.8l0.2,10.7c3.8-8.1,12.2-11.3,19.9-11.3c4.5-0.1,8.8,1.1,12.8,3.5l-2.7,4.8
			c-3.1-1.9-6.7-2.8-10.2-2.8c-11.1,0.1-19.7,9.1-19.7,20v34.9h-5.9v-59.8H2421.4z"/>
		<path fill="#FFFFFF" d="M2509.5,278v33c3.5-6.2,13.3-9.6,19.6-9.6c17.4,0,30.4,10.7,30.4,31.2c0,19.6-13.2,31.2-30.7,31.2
			c-7.3,0-14.6-2.4-19.2-9.6l-1,8.2h-13.8V278H2509.5z M2510.5,332.7c0,10.8,8,17.6,17.3,17.6c9.4,0,16.9-7.1,16.9-17.6
			c0-10.8-7.5-17.4-16.9-17.4C2518.5,315.3,2510.5,322.3,2510.5,332.7z"/>
		<path fill="#FFFFFF" d="M2585.5,302.9v31.2c0,9.1,5,16,14.4,16c9.1,0,15.3-7.6,15.3-16.7v-30.5h14.6v59.8h-13.2l-1-8.1
			c-6.2,6.1-11.9,9-20.2,9c-14.3,0-24.7-10.8-24.7-29.3v-31.4H2585.5z"/>
		<path fill="#FFFFFF" d="M2681.9,318.8c-4.2-4-9.1-5.3-14.8-5.3c-7,0-10.9,2.2-10.9,5.9c0,3.9,3.5,6.1,11.1,6.5
			c11.3,0.7,25.5,3.3,25.5,19.1c0,10.5-8.6,19.6-25.7,19.6c-9.4,0-18.9-1.6-27.6-10.7l7.3-10.5c4.2,4.7,13.9,8.2,20.6,8.4
			c5.6,0.1,10.8-2.8,10.8-7.1c0-4.1-3.4-5.8-11.9-6.3c-11.3-0.8-24.7-5-24.7-18.5c0-13.8,14.3-18.6,25.2-18.6
			c9.3,0,16.3,1.8,23.2,7.9L2681.9,318.8z"/>
		<path fill="#FFFFFF" d="M2718.4,286.1c0,11.5-17.4,11.5-17.4,0S2718.4,274.6,2718.4,286.1z M2702.3,302.7v59.9h14.8v-59.9H2702.3z
			"/>
		<path fill="#FFFFFF" d="M2774.3,362.6v-31.2c0-9.1-5-16-14.4-16c-9.1,0-15.3,7.6-15.3,16.7v30.5H2730v-59.8h13.2l1,8.1
			c6.1-5.9,12.1-9,19.6-9c14,0,25.3,10.5,25.3,29.3v31.4H2774.3z"/>
		<path fill="#FFFFFF" d="M2814.4,338c1,7.4,7.4,12.7,17.8,12.7c5.4,0,12.6-2.1,16-5.6l9.4,9.3c-6.3,6.5-16.6,9.7-25.7,9.7
			c-20.6,0-32.8-12.7-32.8-31.8c0-18.2,12.3-31.2,31.7-31.2c20,0,32.4,12.3,30.1,36.9H2814.4z M2846.9,325.8
			c-1-7.7-7-11.6-15.5-11.6c-8,0-14.5,3.9-16.7,11.6H2846.9z"/>
		<path fill="#FFFFFF" d="M2911.4,318.8c-4.2-4-9.1-5.3-14.8-5.3c-7,0-10.9,2.2-10.9,5.9c0,3.9,3.5,6.1,11.1,6.5
			c11.3,0.7,25.5,3.3,25.5,19.1c0,10.5-8.6,19.6-25.7,19.6c-9.4,0-18.9-1.6-27.6-10.7l7.3-10.5c4.2,4.7,13.9,8.2,20.6,8.4
			c5.6,0.1,10.8-2.8,10.8-7.1c0-4.1-3.4-5.8-11.9-6.3c-11.3-0.8-24.7-5-24.7-18.5c0-13.8,14.3-18.6,25.2-18.6
			c9.3,0,16.3,1.8,23.2,7.9L2911.4,318.8z"/>
		<path fill="#FFFFFF" d="M2970.8,318.8c-4.2-4-9.1-5.3-14.8-5.3c-7,0-10.9,2.2-10.9,5.9c0,3.9,3.5,6.1,11.1,6.5
			c11.3,0.7,25.5,3.3,25.5,19.1c0,10.5-8.6,19.6-25.7,19.6c-9.4,0-18.9-1.6-27.6-10.7l7.3-10.5c4.2,4.7,13.9,8.2,20.6,8.4
			c5.6,0.1,10.8-2.8,10.8-7.1c0-4.1-3.4-5.8-11.9-6.3c-11.3-0.8-24.7-5-24.7-18.5c0-13.8,14.3-18.6,25.2-18.6
			c9.3,0,16.3,1.8,23.2,7.9L2970.8,318.8z"/>
	</g>
	<g>
		<path fill="#FFFFFF" d="M1719.3,461.8c-4.2-4-9.1-5.3-14.8-5.3c-7,0-10.9,2.2-10.9,5.9c0,3.9,3.5,6.1,11.1,6.5
			c11.3,0.7,25.5,3.3,25.5,19.1c0,10.5-8.6,19.6-25.7,19.6c-9.4,0-18.9-1.6-27.6-10.7l7.3-10.5c4.2,4.7,13.9,8.2,20.6,8.4
			c5.6,0.1,10.8-2.8,10.8-7.1c0-4.1-3.4-5.8-11.9-6.3c-11.3-0.8-24.7-5-24.7-18.5c0-13.8,14.3-18.6,25.2-18.6
			c9.3,0,16.3,1.8,23.2,7.9L1719.3,461.8z"/>
		<path fill="#FFFFFF" d="M1760.6,429.1v16.9h16.5v12.7h-16.6v25.8c0,5.7,3.1,8.5,7.7,8.5c2.3,0,5-0.7,7.1-1.8l4.1,12.6
			c-4.2,1.7-7.7,2.4-12.2,2.5c-13,0.5-21.4-6.9-21.4-21.8v-25.8h-11.1v-12.7h11.1v-15.4L1760.6,429.1z"/>
		<path fill="#FFFFFF" d="M1835.4,446h14.2v59.7h-13.9l-0.7-8.7c-3.4,7-12.7,10.4-19.4,10.5c-17.7,0.1-30.7-10.8-30.7-31.7
			c0-20.6,13.7-31.4,31.1-31.2c8,0,15.6,3.8,19,9.7L1835.4,446z M1799.6,475.7c0,11.4,7.9,18.2,17.7,18.2c23.2,0,23.2-36.2,0-36.2
			C1807.4,457.7,1799.6,464.4,1799.6,475.7z"/>
		<path fill="#FFFFFF" d="M1906,505.6v-31.2c0-9.1-5-16-14.4-16c-9.1,0-15.3,7.6-15.3,16.7v30.5h-14.6v-59.8h13.2l1,8.1
			c6.1-5.9,12.1-9,19.6-9c14,0,25.3,10.5,25.3,29.3v31.4H1906z"/>
		<path fill="#FFFFFF" d="M1995.4,421v84.6h-13.8l-1-8.2c-4.6,7.1-12,9.6-19.2,9.6c-17.6,0-30.7-11.6-30.7-31.2
			c0-20.6,13-31.2,30.4-31.2c6.3,0,16.1,3.4,19.6,9.6v-33H1995.4z M1945.4,475.7c0,10.4,7.5,17.6,16.9,17.6
			c9.3,0,17.3-6.8,17.3-17.6c0-10.4-8-17.4-17.3-17.4C1952.9,458.3,1945.4,465,1945.4,475.7z"/>
		<path fill="#FFFFFF" d="M2092,475.9c0,17.2-11.7,31.1-31.1,31.1c-19.4,0-31-13.9-31-31.1c0-17.1,11.9-31.1,30.9-31.1
			C2079.8,444.8,2092,458.8,2092,475.9z M2044.7,475.9c0,9.1,5.4,17.6,16.2,17.6s16.2-8.5,16.2-17.6c0-9-6.3-17.7-16.2-17.7
			C2050.2,458.2,2044.7,466.9,2044.7,475.9z"/>
		<path fill="#FFFFFF" d="M2117.3,446v31.2c0,9.1,5,16,14.4,16c9.1,0,15.3-7.6,15.3-16.7V446h14.6v59.8h-13.2l-1-8.1
			c-6.2,6.1-11.9,9-20.2,9c-14.3,0-24.7-10.8-24.7-29.3V446H2117.3z"/>
		<path fill="#FFFFFF" d="M2195.5,429.1v16.9h16.5v12.7h-16.6v25.8c0,5.7,3.1,8.5,7.7,8.5c2.3,0,5-0.7,7.1-1.8l4.1,12.6
			c-4.2,1.7-7.7,2.4-12.2,2.5c-13,0.5-21.4-6.9-21.4-21.8v-25.8h-11.1v-12.7h11.1v-15.4L2195.5,429.1z"/>
		<path fill="#FFFFFF" d="M2264.3,505.6v-54.1H2252v-5.2h12.2V441c0-11.9,4.7-20.5,17.9-20.5c4.5,0,8.5,1.6,11.9,4.1l-2.9,4.4
			c-3.3-1.9-5.6-3-9.2-3c-7.5,0-11.9,4.6-11.9,15v5.3h19.7v5.2h-19.7v54.1H2264.3z"/>
		<path fill="#FFFFFF" d="M2308.1,445.8l0.2,10.7c3.8-8.1,12.2-11.3,19.9-11.3c4.5-0.1,8.8,1.1,12.8,3.5l-2.7,4.8
			c-3.1-1.9-6.7-2.8-10.2-2.8c-11.1,0.1-19.7,9.1-19.7,20v34.9h-5.9v-59.8H2308.1z"/>
		<path fill="#FFFFFF" d="M2347.2,475.9c0-19,13.6-31.1,30.4-31.1c16.8,0,30.4,12.1,30.4,31.1s-13.6,30.6-30.4,30.6
			C2360.7,506.5,2347.2,494.9,2347.2,475.9z M2402.1,475.9c0-15.5-11-25.5-24.6-25.5c-13.6,0-24.6,10-24.6,25.5s11,24.8,24.6,24.8
			C2391.1,500.7,2402.1,491.4,2402.1,475.9z"/>
		<path fill="#FFFFFF" d="M2510.2,505.6v-35.8c0-11.5-7.7-19.6-19.1-19.6c-11.4,0-19.2,8.5-19.2,20v35.5h-5.9v-35.5
			c0-11.5-7.9-19.9-19.2-19.9c-11.4,0-19.1,8.4-19.1,19.9v35.5h-5.9v-59.8h5.6l0.1,9.9c4.1-7.9,11.7-11.1,19.5-11.1
			c9.1,0,18.6,4.1,22.2,14.8c3.6-9.8,13-14.8,22.2-14.8c14.6,0,25.1,10.3,25.1,25.2v35.8H2510.2z"/>
		<path fill="#FFFFFF" d="M2579.8,427.8v18h20.3v5h-20.3v36.4c0,8.1,1.7,13.8,11,13.8c2.9,0,6.2-1,9.2-2.4l2.1,4.8
			c-3.8,1.8-7.5,3-11.3,3c-12.7,0-16.8-7.5-16.8-19.2v-36.4h-12.7v-5h12.7v-17.4L2579.8,427.8z"/>
		<path fill="#FFFFFF" d="M2619.5,420.9V457c4.8-8.6,13.2-11.9,21.5-12c16.7,0,25.1,10.8,25.1,26.4v34.3h-5.8v-34.3
			c0-12.3-5.8-20.7-19.2-20.7c-12.6,0-21.3,9.7-21.3,22.2v32.8h-5.9v-84.7H2619.5z"/>
		<path fill="#FFFFFF" d="M2678.2,475.7c0-17.9,13.6-30.9,30.4-30.9c16.8,0,31.8,10.3,29.5,33.7h-53.9c1.2,14,12,22.2,24.3,22.2
			c7.9,0,17.1-3.1,21.5-9.1l4.2,3.4c-5.8,7.6-16.2,11.5-25.8,11.5C2691.8,506.5,2678.2,494.7,2678.2,475.7z M2732.8,473.3
			c-0.1-14.8-9.8-23-24.2-23c-12.3,0-23,8.4-24.3,23H2732.8z"/>
		<path fill="#FFFFFF" d="M2835.8,497.3c-6.1,6.1-13.9,9-21.8,9c-16.8,0-30.7-11.6-30.7-30.5c0-18.9,13.4-30.5,30.7-30.5
			c7.9,0,15.7,3,21.8,9l-3.9,3.8c-4.8-4.8-11.5-7.1-17.9-7.1c-13.6,0-24.9,8.8-24.9,24.9c0,16.1,11.4,24.9,24.9,24.9
			c6.4,0,13-2.5,17.8-7.4L2835.8,497.3z"/>
		<path fill="#FFFFFF" d="M2853.5,445.8l0.2,10.7c3.8-8.1,12.2-11.3,19.9-11.3c4.5-0.1,8.8,1.1,12.8,3.5l-2.7,4.8
			c-3.1-1.9-6.7-2.8-10.2-2.8c-11.1,0.1-19.7,9.1-19.7,20v34.9h-5.9v-59.8H2853.5z"/>
		<path fill="#FFFFFF" d="M2892.6,475.9c0-19,13.6-31.1,30.4-31.1c16.8,0,30.4,12.1,30.4,31.1s-13.6,30.6-30.4,30.6
			C2906.2,506.5,2892.6,494.9,2892.6,475.9z M2947.6,475.9c0-15.5-11-25.5-24.6-25.5c-13.6,0-24.6,10-24.6,25.5s11,24.8,24.6,24.8
			C2936.6,500.7,2947.6,491.4,2947.6,475.9z"/>
		<path fill="#FFFFFF" d="M3026.3,505.6h-6.5l-9.7-26.1l-7.3-23.2l-7.5,23.4l-9.7,26h-6.5l-21.3-59.8h6.5l18,52.9l18.3-52.9h4.2
			l18.2,52.9l17.9-52.9h6.5L3026.3,505.6z"/>
		<path fill="#FFFFFF" d="M3114.5,420.9v84.7h-5.8v-13.2c-5,9.1-14.8,14.2-24.9,14.2c-16.7,0-29.9-11-29.9-30.9
			c0-19.7,13.3-30.9,30-30.9c10.3,0,20,4.4,24.8,14v-38H3114.5z M3059.7,475.7c0,16.6,11,25.1,24.5,25.1c14,0,24.5-10.3,24.5-25.2
			c0-14.9-10.7-25.1-24.5-25.1C3070.7,450.6,3059.7,458.9,3059.7,475.7z"/>
		<path fill="#FFFFFF" d="M3138.8,502c0,6.3-9.6,6.3-9.6,0S3138.8,495.7,3138.8,502z"/>
	</g>
</g>
</svg>
