<?xml version="1.0" encoding="utf-8"?>
<!-- Generator: Adobe Illustrator 18.0.0, SVG Export Plug-In . SVG Version: 6.00 Build 0)  -->
<!DOCTYPE svg PUBLIC "-//W3C//DTD SVG 1.1//EN" "http://www.w3.org/Graphics/SVG/1.1/DTD/svg11.dtd">
<svg version="1.1" id="Layer_1" xmlns="http://www.w3.org/2000/svg" xmlns:xlink="http://www.w3.org/1999/xlink" x="0px" y="0px"
	 viewBox="0 0 250 250" enable-background="new 0 0 250 250" xml:space="preserve">
<g>
	<g>
		<polygon fill="#FFFFFF" points="200,27 182,27 182,7 162,7 162,27 141,27 141,48 162,48 162,68 182,68 182,48 200,48 		"/>
		<path fill="#EB0029" d="M182.1,70h-21.3c-1.6,0-2.8-0.9-2.8-2.5V50h-15.6c-1.6,0-4.4-0.8-4.4-2.3V27.8c0-1.6,2.9-2.8,4.4-2.8H158
			V9.4c0-1.6,1.3-4.4,2.8-4.4h21.3c1.6,0,1.9,2.9,1.9,4.4V25h16.5c1.6,0,3.5,1.3,3.5,2.8v19.8c0,1.6-1.9,2.3-3.5,2.3H184v17.5
			C184,69.1,183.7,70,182.1,70z M164,65h16V47.7c0-1.6,0.5-2.7,2.1-2.7H198V31h-15.9c-1.6,0-2.1-1.6-2.1-3.2V10h-16v17.8
			c0,1.6-1.6,3.2-3.2,3.2H147v14h13.8c1.6,0,3.2,1.1,3.2,2.7V65z"/>
	</g>
	<g>
		<path fill="#FFFFFF" d="M197.1,114.3H44c-4.4,0-8.1,3.6-8.1,8.1v83.2c0,4.4,3.6,8.1,8.1,8.1h65.4l-11.8,28.2
			c-1.5,2.4,1.4,5.2,3.8,3.6l49-31.8h46.7c4.4,0,8.1-3.6,8.1-8.1v-83.2C205.1,117.9,201.5,114.3,197.1,114.3z"/>
		<path d="M100,248.7c-2,0-3.8-1.1-4.8-2.9c-0.9-1.7-0.9-3.6,0-5.3l10.1-24.1H44c-6,0-10.9-4.9-10.9-10.9v-83.2
			c0-6,4.9-10.9,10.9-10.9h153.1c6,0,10.9,4.9,10.9,10.9v83.2c0,6-4.9,10.9-10.9,10.9h-45.8L103,247.8
			C102.1,248.4,101.1,248.7,100,248.7z M44,117.1c-2.9,0-5.2,2.3-5.2,5.2v83.2c0,2.9,2.3,5.2,5.2,5.2h65.5c0.9,0,1.8,0.5,2.4,1.3
			c0.5,0.8,0.6,1.8,0.3,2.7l-11.7,28.1l48.5-31.5c0.5-0.3,1-0.5,1.5-0.5h46.7c2.9,0,5.2-2.3,5.2-5.2v-83.2c0-2.9-2.3-5.2-5.2-5.2H44
			z"/>
	</g>
	<g>
		<g>
			<rect x="6.2" y="65" fill="#FFFFFF" width="52.6" height="87.1"/>
			<path d="M58.8,154.9H6.2c-1.6,0-2.8-1.3-2.8-2.8V65c0-1.6,1.3-2.8,2.8-2.8h52.6c1.6,0,2.8,1.3,2.8,2.8v87.1
				C61.7,153.6,60.4,154.9,58.8,154.9z M9,149.2h47V67.8H9V149.2z"/>
		</g>
		<g>
			<path fill="#FFFFFF" d="M155.6,92.1c0-5.5-4.4-9.9-9.9-9.9l-5.5-0.6c6.6-0.6,11.8-6.1,11.8-12.9c0-6.7-5.2-12.3-11.8-12.9v-0.1
				h-1c0,0-1,0-1,0v0h-31.9c0,0,15-42.5-9.5-51.2c-7.2-2.6-14.4,3.8-13.1,11.4L86,29.6L60.2,76.1V143h75.6c5.5,0,9.9-4.7,9.9-10.1
				c0-5.5-4.4-10.1-9.9-10.1l4.5-0.5c5.5,0,9.9-4.4,9.9-9.9c0-5.5-4.4-9.9-9.9-9.9l5.5-0.5C151.2,102,155.6,97.5,155.6,92.1z"/>
			<path d="M135.7,145.8H60.2c-1.6,0-2.8-1.3-2.8-2.8V76.1c0-0.5,0.1-1,0.4-1.4L83,29.1l-2.2-12.5c-0.7-3.8,0.4-7.7,2.9-10.6
				c3.4-4.1,9-5.7,14-3.9c22.5,8,15.6,39.9,12.4,51H138c0.1,0,0.1,0,0.2,0l2,0c0.3,0,0.6,0,0.8,0.1c7.9,1,13.8,7.6,13.8,15.6
				c0,4.5-1.8,8.5-4.8,11.3c4.9,1.8,8.4,6.5,8.4,11.9c0,5.5-3.6,10.3-8.5,12c1.9,2.2,3,5.1,3,8.2c0,5.3-3.2,9.8-7.8,11.7
				c2.1,2.3,3.4,5.4,3.4,8.8C148.4,140,142.7,145.8,135.7,145.8z M63,140.1h72.7c3.8,0,7-3.3,7-7.3c0-4-3.2-7.3-7-7.3
				c-1.5,0-2.7-1.2-2.8-2.7c-0.1-1.5,1-2.8,2.5-3l4.5-0.5c0.1,0,0.2,0,0.3,0c3.9,0,7-3.2,7-7c0-3.9-3.2-7-7-7
				c-1.5,0-2.8-1.2-2.8-2.7c-0.1-1.5,1.1-2.8,2.6-3l5.5-0.5c0.1,0,0.2,0,0.3,0c3.9,0,7-3.2,7-7c0-3.9-3.2-7-7-7c-0.1,0-0.2,0-0.3,0
				l-5.5-0.6c-1.5-0.1-2.6-1.4-2.5-2.8s1.1-2.7,2.6-2.8c5.2-0.5,9.2-4.9,9.2-10s-4-9.6-9.2-10c-0.1,0-0.2,0-0.3,0l-1.3,0
				c-0.1,0-0.1,0-0.2,0h-31.9c-0.9,0-1.8-0.4-2.3-1.2c-0.5-0.7-0.7-1.7-0.4-2.6c0.1-0.4,13.7-39.9-7.7-47.6c-2.8-1-5.8-0.1-7.8,2.2
				c-1.4,1.7-2,3.8-1.6,6l2.4,13.5c0.1,0.6,0,1.3-0.3,1.9L63,76.9V140.1z"/>
		</g>
	</g>
	<g>
		<path fill="#FFFFFF" d="M243.7,94.1L212,62.4v16.7c-21,12.7-30.6,25.6-42.3,47.9c12.4-9.7,27.3-24.7,42.3-22v20.8L243.7,94.1z"/>
		<path d="M169.5,129.9c-0.6,0-1.3-0.2-1.8-0.7c-1-0.9-1.8-2.3-1.2-3.5c11.7-22.3,22.5-35.4,41.5-48.2V62.4c0-1.1,1.2-2.2,2.3-2.6
			c1.1-0.4,2.5-0.2,3.3,0.6l31.8,31.7c1.1,1.1,1.2,2.9,0.1,4l-31.7,31.7c-0.8,0.8-2.5,1.1-3.6,0.6c-1.1-0.4-2.2-1.5-2.2-2.6v-18.2
			c-9-0.5-21.2,8.5-30.8,16.5c-2.2,1.8-4.1,3.6-6.2,5.2C170.5,129.7,170.2,129.9,169.5,129.9z M208.1,101.9c1.4,0,2.5,0.1,3.8,0.4
			c1.4,0.2,2,1.4,2,2.8V119l24.9-24.9L214,69.3v9.9c0,1-0.2,1.9-1,2.4c-16.2,9.7-25.2,19.5-33.9,33.9
			C187.8,108.5,197.6,101.9,208.1,101.9z"/>
	</g>
</g>
</svg>
