<?xml version="1.0" encoding="utf-8"?>
<!-- Generator: Adobe Illustrator 18.0.0, SVG Export Plug-In . SVG Version: 6.00 Build 0)  -->
<!DOCTYPE svg PUBLIC "-//W3C//DTD SVG 1.1//EN" "http://www.w3.org/Graphics/SVG/1.1/DTD/svg11.dtd">
<svg version="1.1" id="Layer_1" xmlns="http://www.w3.org/2000/svg" xmlns:xlink="http://www.w3.org/1999/xlink" x="0px" y="0px"
	 viewBox="0 0 250 250" enable-background="new 0 0 250 250" xml:space="preserve">
<g>
	<g>
		<g>
			<path fill="#FFFFFF" d="M238,190.8H132.3c-5.5,0-10-4.5-10-10V42c0-5.5,4.5-10,10-10H238c5.5,0,10,4.5,10,10v138.9
				C248,186.4,243.5,190.8,238,190.8z"/>
			<path d="M237.7,192.9H132.6c-6.8,0-12.3-5.5-12.3-12.3V42.2c0-6.8,5.5-12.3,12.3-12.3h105.1c6.8,0,12.3,5.5,12.3,12.3v138.4
				C250,187.4,244.5,192.9,237.7,192.9z M132.6,34c-4.5,0-8.2,3.7-8.2,8.2v138.4c0,4.5,3.7,8.2,8.2,8.2h105.1c4.5,0,8.2-3.7,8.2-8.2
				V42.2c0-4.5-3.7-8.2-8.2-8.2H132.6z"/>
		</g>
		<g>
			<path fill="#EB0029" d="M167.2,75.4h-27.4c-1.1,0-2-0.9-2-2V51.1c0-1.1,0.9-2,2-2h27.4c1.1,0,2,0.9,2,2v22.3
				C169.2,74.5,168.3,75.4,167.2,75.4z M141.8,71.3h23.3V53.1h-23.3V71.3z"/>
		</g>
		<g>
			<path d="M228.2,58h-52.3c-1.1,0-2-1.9-2-3s0.9-3,2-3h52.3c1.1,0,2,1.9,2,3S229.3,58,228.2,58z"/>
		</g>
		<g>
			<path d="M228.2,69h-52.3c-1.1,0-2-0.9-2-2s0.9-2,2-2h52.3c1.1,0,2,0.9,2,2S229.3,69,228.2,69z"/>
		</g>
		<g>
			<line x1="137" y1="103" x2="195" y2="103"/>
			<path fill="#EB0029" d="M195.4,106H137c-1.7,0-3.1-1.3-3.1-3s1.4-3,3.1-3h58.4c1.7,0,3.1,1.3,3.1,3S197.1,106,195.4,106z"/>
		</g>
		<g>
			<line x1="137" y1="119" x2="233" y2="119"/>
			<path d="M233.3,121H136c-1.1,0-2-1.4-2-2.5s0.9-2.5,2-2.5h97.4c1.1,0,2,1.4,2,2.5S234.5,121,233.3,121z"/>
		</g>
		<g>
			<line x1="137" y1="133" x2="233" y2="133"/>
			<path d="M233.3,134H136c-1.1,0-2-1.4-2-2.5s0.9-2.5,2-2.5h97.4c1.1,0,2,1.4,2,2.5S234.5,134,233.3,134z"/>
		</g>
		<g>
			<line x1="137" y1="146" x2="233" y2="146"/>
			<path d="M233.3,147H136c-1.1,0-2-0.4-2-1.5s0.9-1.5,2-1.5h97.4c1.1,0,2,0.4,2,1.5S234.5,147,233.3,147z"/>
		</g>
		<g>
			<path fill="#EB0029" d="M248,180.6c0,5.7-4.6,10.2-10.2,10.2H132.6c-5.7,0-10.2-4.6-10.2-10.2"/>
			<path d="M237.7,192.9H132.6c-6.8,0-12.3-5.5-12.3-12.3h4.1c0,4.5,3.7,8.2,8.2,8.2h105.1c4.5,0,8.2-3.7,8.2-8.2h4.1
				C250,187.4,244.5,192.9,237.7,192.9z"/>
		</g>
	</g>
	<g>
		<g>
			<path fill="#FFFFFF" d="M180.8,218H75.2c-5.5,0-10-4.5-10-10v-56.9c0-5.5,4.5-10,10-10h105.6c5.5,0,10,4.5,10,10V208
				C190.8,213.5,186.3,218,180.8,218z"/>
			<path d="M180.5,220.1H75.4c-6.8,0-12.3-5.5-12.3-12.3v-56.4c0-6.8,5.5-12.3,12.3-12.3h105.1c6.8,0,12.3,5.5,12.3,12.3v56.4
				C192.8,214.5,187.3,220.1,180.5,220.1z M75.4,143.2c-4.5,0-8.2,3.7-8.2,8.2v56.4c0,4.5,3.7,8.2,8.2,8.2h105.1
				c4.5,0,8.2-3.7,8.2-8.2v-56.4c0-4.5-3.7-8.2-8.2-8.2H75.4z"/>
		</g>
		<g>
			<polyline fill="#FFFFFF" points="67,212.9 128,164.7 188.9,212.9 			"/>
			<path d="M188.9,214.9c-0.4,0-0.9-0.1-1.3-0.4L128,167.3l-59.7,47.2c-0.9,0.7-2.2,0.6-2.9-0.3c-0.7-0.9-0.6-2.2,0.3-2.9l60.9-48.2
				c0.7-0.6,1.8-0.6,2.5,0l60.9,48.2c0.9,0.7,1,2,0.3,2.9C190.1,214.7,189.5,214.9,188.9,214.9z"/>
		</g>
		<g>
			<polyline fill="#FFFFFF" points="188.9,145.7 128,193.9 67,145.7 			"/>
			<path d="M128,196c-0.4,0-0.9-0.1-1.3-0.4l-60.9-48.2c-0.9-0.7-1-2-0.3-2.9c0.7-0.9,2-1,2.9-0.3l59.7,47.2l59.7-47.2
				c0.9-0.7,2.2-0.6,2.9,0.3c0.7,0.9,0.6,2.2-0.3,2.9l-60.9,48.2C128.9,195.8,128.4,196,128,196z"/>
		</g>
	</g>
	<g>
		<g>
			<path fill="#FFFFFF" d="M118,170.3H12.3c-5.5,0-10-4.5-10-10v-56.9c0-5.5,4.5-10,10-10H118c5.5,0,10,4.5,10,10v56.9
				C128,165.9,123.5,170.3,118,170.3z"/>
			<path d="M117.7,172.4H12.6c-6.8,0-12.3-5.5-12.3-12.3v-56.4c0-6.8,5.5-12.3,12.3-12.3h105.1c6.8,0,12.3,5.5,12.3,12.3v56.4
				C130,166.9,124.5,172.4,117.7,172.4z M12.6,95.5c-4.5,0-8.2,3.7-8.2,8.2v56.4c0,4.5,3.7,8.2,8.2,8.2h105.1c4.5,0,8.2-3.7,8.2-8.2
				v-56.4c0-4.5-3.7-8.2-8.2-8.2H12.6z"/>
		</g>
		<g>
			<rect x="44.4" y="132.7" fill="#FFFFFF" width="71.2" height="20.5"/>
			<path d="M115.7,155.2H44.4c-1.1,0-2-0.9-2-2v-20.5c0-1.1,0.9-2,2-2h71.2c1.1,0,2,0.9,2,2v20.5
				C117.7,154.3,116.8,155.2,115.7,155.2z M46.5,151.1h67.1v-16.4H46.5V151.1z"/>
		</g>
		<g>
			<rect x="9.3" y="102.2" fill="#FFFFFF" width="15.4" height="15.4"/>
			<path fill="#EB0029" d="M24.8,119.7H9.3c-1.1,0-2-0.9-2-2v-15.4c0-1.1,0.9-2,2-2h15.4c1.1,0,2,0.9,2,2v15.4
				C26.8,118.7,25.9,119.7,24.8,119.7z M11.4,115.6h11.3v-11.3H11.4V115.6z"/>
		</g>
		<g>
			<line fill="#FFFFFF" x1="31" y1="104" x2="76" y2="104"/>
			<path d="M77.5,107H30.4c-1.1,0-2-0.9-2-2s0.9-2,2-2h47.1c1.1,0,2,0.9,2,2S78.7,107,77.5,107z"/>
		</g>
		<g>
			<line fill="#FFFFFF" x1="31" y1="113" x2="76" y2="113"/>
			<path d="M77.5,116H30.4c-1.1,0-2-1.4-2-2.5s0.9-2.5,2-2.5h47.1c1.1,0,2,1.4,2,2.5S78.7,116,77.5,116z"/>
		</g>
		<g>
			<line fill="#FFFFFF" x1="55" y1="146" x2="106" y2="146"/>
			<path d="M106.2,147H54c-1.1,0-2-0.4-2-1.5s0.9-1.5,2-1.5h52.3c1.1,0,2,0.4,2,1.5S107.4,147,106.2,147z"/>
		</g>
		<g>
			<line fill="#FFFFFF" x1="55" y1="140" x2="106" y2="140"/>
			<path d="M106.2,141H54c-1.1,0-2-0.4-2-1.5s0.9-1.5,2-1.5h52.3c1.1,0,2,0.4,2,1.5S107.4,141,106.2,141z"/>
		</g>
	</g>
</g>
</svg>
