<?xml version="1.0" encoding="utf-8"?>
<!-- Generator: Adobe Illustrator 18.0.0, SVG Export Plug-In . SVG Version: 6.00 Build 0)  -->
<!DOCTYPE svg PUBLIC "-//W3C//DTD SVG 1.1//EN" "http://www.w3.org/Graphics/SVG/1.1/DTD/svg11.dtd">
<svg version="1.1" id="trees" xmlns="http://www.w3.org/2000/svg" xmlns:xlink="http://www.w3.org/1999/xlink" x="0px" y="0px"
	 viewBox="0 0 4823.5 1407.9" enable-background="new 0 0 4823.5 1407.9" xml:space="preserve">
<g>
	<path fill="#B0B129" d="M2433.8,893c0-10.8-5.4-20.3-13.5-26c-0.9-16.7-14.8-30-31.7-30c-2.4,0-4.7,0.3-7,0.8
		c-5.8-7.1-14.7-11.6-24.5-11.6c-11.8,0-22.1,6.4-27.6,16c-5.8-6.5-14.3-10.6-23.7-10.6c-15.6,0-28.6,11.3-31.3,26.1
		c-0.1,0-0.1,0-0.2,0c-17.6,0-31.8,14.2-31.8,31.8c0,9.3,4,17.6,10.3,23.4c-1.4,3.6-2.2,7.5-2.2,11.7c0,17.6,14.2,31.8,31.8,31.8
		c7.4,0,14.2-2.5,19.6-6.7c5.7,8.4,15.4,13.9,26.3,13.9c1.7,0,3.4-0.1,5.1-0.4c5.2,3.7,11.5,5.8,18.3,5.8c11.1,0,20.9-5.7,26.6-14.3
		c3.2,1.1,6.7,1.7,10.3,1.7c17.6,0,31.8-14.2,31.8-31.8c0-1.8-0.2-3.5-0.4-5.2C2428.3,913.5,2433.8,903.9,2433.8,893z"/>
	<path fill="#B0B129" d="M1672.8,840.4c-1.8-10.6-8.6-19.1-17.6-23.4c-3.6-16.4-19.5-27.2-36.2-24.4c-2.4,0.4-4.6,1-6.7,1.9
		c-6.9-6-16.3-9-26.1-7.4c-11.6,1.9-20.7,10-24.6,20.3c-6.8-5.5-15.8-8.1-25.1-6.6c-15.4,2.6-26.3,15.8-26.6,30.9
		c-0.1,0-0.1,0-0.2,0c-17.3,2.9-29,19.2-26.1,36.6c1.5,9.1,6.8,16.7,14,21.4c-0.8,3.8-0.9,7.8-0.3,11.9c2.9,17.3,19.2,29,36.6,26.1
		c7.3-1.2,13.6-4.8,18.2-9.9c7,7.4,17.4,11.2,28.2,9.4c1.7-0.3,3.4-0.7,4.9-1.2c5.7,2.8,12.3,3.8,19,2.7c11-1.8,19.7-9,23.8-18.5
		c3.4,0.6,6.9,0.6,10.5,0c17.3-2.9,29-19.2,26.1-36.6c-0.3-1.7-0.7-3.4-1.3-5.1C1670.7,861.6,1674.6,851.1,1672.8,840.4z"/>
	<path fill="#B0B129" d="M3377.8,899c0-10.8-5.4-20.3-13.5-26c-0.9-16.7-14.8-30-31.7-30c-2.4,0-4.7,0.3-7,0.8
		c-5.8-7.1-14.7-11.6-24.5-11.6c-11.8,0-22.1,6.4-27.6,16c-5.8-6.5-14.3-10.6-23.7-10.6c-15.6,0-28.6,11.3-31.3,26.1
		c-0.1,0-0.1,0-0.2,0c-17.6,0-31.8,14.2-31.8,31.8c0,9.3,4,17.6,10.3,23.4c-1.4,3.6-2.2,7.5-2.2,11.7c0,17.6,14.2,31.8,31.8,31.8
		c7.4,0,14.2-2.5,19.6-6.7c5.7,8.4,15.4,13.9,26.3,13.9c1.7,0,3.4-0.1,5.1-0.4c5.2,3.7,11.5,5.8,18.3,5.8c11.1,0,20.9-5.7,26.6-14.3
		c3.2,1.1,6.7,1.7,10.3,1.7c17.6,0,31.8-14.2,31.8-31.8c0-1.8-0.2-3.5-0.4-5.2C3372.3,919.5,3377.8,909.9,3377.8,899z"/>
	<path fill="#B0B129" d="M2081.9,902.6c0.2-1.3,0.3-2.7,0.3-4c0-13.6-11-24.6-24.6-24.6c-2.8,0-5.5,0.5-8,1.3
		c-4.4-6.7-12-11.1-20.6-11.1c-5.3,0-10.2,1.7-14.2,4.5c-1.3-0.2-2.6-0.3-3.9-0.3c-1.5,0-3,0.1-4.4,0.4c-3.1-2.8-7.2-4.5-11.8-4.5
		c-7,0-13,4-15.9,9.9c-1.1-0.2-2.3-0.3-3.4-0.3c-13.6,0-24.6,11-24.6,24.6c0,3.2,0.6,6.2,1.7,9c-4.9,4.5-8,11-8,18.1
		c0,13.6,11,24.6,24.6,24.6c0.1,0,0.1,0,0.2,0c2.1,11.5,12.1,20.2,24.2,20.2c7.3,0,13.8-3.2,18.3-8.2c4.2,7.4,12.2,12.4,21.4,12.4
		c7.6,0,14.5-3.5,19-9c1.7,0.4,3.5,0.6,5.4,0.6c13.1,0,23.9-10.3,24.6-23.3c6.3-4.5,10.5-11.8,10.5-20.1
		C2092.7,914.5,2088.4,907,2081.9,902.6z"/>
	<path fill="#B0B129" d="M1154.8,915.5c0.3,1.3,0.7,2.6,1.2,3.8c5.3,12.5,19.7,18.4,32.2,13.2c2.6-1.1,4.9-2.6,6.9-4.3
		c6.6,4.5,15.3,5.6,23.2,2.3c4.9-2,8.7-5.5,11.3-9.6c1.3-0.3,2.5-0.7,3.8-1.2c1.4-0.6,2.7-1.3,3.9-2.1c4,1.4,8.4,1.3,12.6-0.4
		c6.4-2.7,10.4-8.8,10.8-15.3c1.1-0.3,2.2-0.6,3.3-1.1c12.5-5.3,18.4-19.7,13.2-32.2c-1.2-2.9-3-5.5-5.1-7.7
		c2.8-6,3.1-13.2,0.4-19.8c-5.3-12.5-19.7-18.4-32.2-13.2c-0.1,0-0.1,0-0.2,0.1c-6.4-9.8-19-14-30.1-9.3
		c-6.7,2.8-11.5,8.3-13.7,14.7c-6.8-5.2-16.1-6.7-24.5-3.2c-7.1,3-12,8.8-14.1,15.6c-1.7,0.3-3.5,0.8-5.2,1.5
		c-12.1,5.1-18,18.7-13.7,31c-4.1,6.6-5.1,14.9-1.9,22.6C1140.2,908.7,1147,913.9,1154.8,915.5z"/>
	<path fill="#B0B129" d="M2560.5,890c0,10.8,5.4,20.3,13.5,26c0.9,16.7,14.8,30,31.7,30c2.4,0,4.7-0.3,7-0.8
		c5.8,7.1,14.7,11.6,24.5,11.6c11.8,0,22.1-6.4,27.6-16c5.8,6.5,14.3,10.6,23.7,10.6c15.6,0,28.6-11.3,31.3-26.1c0.1,0,0.1,0,0.2,0
		c17.6,0,31.8-14.2,31.8-31.8c0-9.3-4-17.6-10.3-23.4c1.4-3.6,2.2-7.5,2.2-11.7c0-17.6-14.2-31.8-31.8-31.8
		c-7.4,0-14.2,2.5-19.6,6.7c-5.7-8.4-15.4-13.9-26.3-13.9c-1.7,0-3.4,0.1-5.1,0.4c-5.2-3.7-11.5-5.8-18.3-5.8
		c-11.1,0-20.9,5.7-26.6,14.3c-3.2-1.1-6.7-1.7-10.3-1.7c-17.6,0-31.8,14.2-31.8,31.8c0,1.8,0.2,3.5,0.4,5.2
		C2566.1,869.4,2560.5,879,2560.5,890z"/>
	<path fill="#B0B129" d="M2928.1,921.8c0-9.9-4.9-18.7-12.5-24c-0.8-15.5-13.6-27.7-29.3-27.7c-2.2,0-4.4,0.3-6.4,0.7
		c-5.4-6.5-13.5-10.7-22.6-10.7c-10.9,0-20.4,5.9-25.5,14.8c-5.4-6-13.2-9.8-21.9-9.8c-14.4,0-26.4,10.4-28.9,24.1
		c-0.1,0-0.1,0-0.2,0c-16.2,0-29.3,13.1-29.3,29.3c0,8.6,3.7,16.3,9.5,21.6c-1.3,3.3-2,7-2,10.8c0,16.2,13.1,29.3,29.3,29.3
		c6.8,0,13.1-2.3,18.1-6.2c5.3,7.8,14.2,12.9,24.3,12.9c1.6,0,3.2-0.1,4.7-0.4c4.8,3.4,10.6,5.4,16.9,5.4c10.2,0,19.3-5.3,24.5-13.2
		c3,1,6.2,1.6,9.5,1.6c16.2,0,29.3-13.1,29.3-29.3c0-1.6-0.1-3.2-0.4-4.8C2923,940.8,2928.1,931.9,2928.1,921.8z"/>
	<path fill="#B0B129" d="M652.8,899c0-10.8-5.4-20.3-13.5-26c-0.9-16.7-14.8-30-31.7-30c-2.4,0-4.7,0.3-7,0.8
		c-5.8-7.1-14.7-11.6-24.5-11.6c-11.8,0-22.1,6.4-27.6,16c-5.8-6.5-14.3-10.6-23.7-10.6c-15.6,0-28.6,11.3-31.3,26.1
		c-0.1,0-0.1,0-0.2,0c-17.6,0-31.8,14.2-31.8,31.8c0,9.3,4,17.6,10.3,23.4c-1.4,3.6-2.2,7.5-2.2,11.7c0,17.6,14.2,31.8,31.8,31.8
		c7.4,0,14.2-2.5,19.6-6.7c5.7,8.4,15.4,13.9,26.3,13.9c1.7,0,3.4-0.1,5.1-0.4c5.2,3.7,11.5,5.8,18.3,5.8c11.1,0,20.9-5.7,26.6-14.3
		c3.2,1.1,6.7,1.7,10.3,1.7c17.6,0,31.8-14.2,31.8-31.8c0-1.8-0.2-3.5-0.4-5.2C647.3,919.5,652.8,909.9,652.8,899z"/>
	<path fill="#B0B129" d="M43.5,890c0,10.8,5.4,20.3,13.5,26c0.9,16.7,14.8,30,31.7,30c2.4,0,4.7-0.3,7-0.8
		c5.8,7.1,14.7,11.6,24.5,11.6c11.8,0,22.1-6.4,27.6-16c5.8,6.5,14.3,10.6,23.7,10.6c15.6,0,28.6-11.3,31.3-26.1c0.1,0,0.1,0,0.2,0
		c17.6,0,31.8-14.2,31.8-31.8c0-9.3-4-17.6-10.3-23.4c1.4-3.6,2.2-7.5,2.2-11.7c0-17.6-14.2-31.8-31.8-31.8
		c-7.4,0-14.2,2.5-19.6,6.7c-5.7-8.4-15.4-13.9-26.3-13.9c-1.7,0-3.4,0.1-5.1,0.4c-5.2-3.7-11.5-5.8-18.3-5.8
		c-11.1,0-20.9,5.7-26.6,14.3c-3.2-1.1-6.7-1.7-10.3-1.7c-17.6,0-31.8,14.2-31.8,31.8c0,1.8,0.2,3.5,0.4,5.2
		C49.1,869.4,43.5,879,43.5,890z"/>
	<path fill="#B0B129" d="M1063.5,904.7c-0.8-9.9-6.4-18.2-14.4-22.9c-2.1-15.3-15.8-26.5-31.4-25.3c-2.2,0.2-4.3,0.6-6.3,1.2
		c-5.9-6.1-14.3-9.5-23.4-8.8c-10.9,0.9-19.9,7.6-24.2,16.8c-5.8-5.5-13.9-8.7-22.6-8c-14.4,1.2-25.5,12.5-26.8,26.3
		c-0.1,0-0.1,0-0.2,0c-16.1,1.3-28.2,15.5-26.9,31.6c0.7,8.5,5,15.9,11.2,20.8c-1,3.4-1.5,7.1-1.2,10.9
		c1.3,16.1,15.5,28.2,31.6,26.9c6.8-0.6,12.8-3.4,17.5-7.7c5.9,7.3,15.2,11.7,25.2,10.9c1.6-0.1,3.1-0.4,4.6-0.8c5,3,11,4.5,17.3,4
		c10.2-0.8,18.8-6.8,23.4-15.2c3.1,0.8,6.3,1.1,9.6,0.8c16.1-1.3,28.2-15.5,26.9-31.6c-0.1-1.6-0.4-3.2-0.8-4.7
		C1059.9,924,1064.3,914.7,1063.5,904.7z"/>
	<path fill="#B0B129" d="M4327.8,840.4c-1.8-10.6-8.6-19.1-17.6-23.4c-3.6-16.4-19.5-27.2-36.2-24.4c-2.4,0.4-4.6,1-6.7,1.9
		c-6.9-6-16.3-9-26.1-7.4c-11.6,1.9-20.7,10-24.6,20.3c-6.8-5.5-15.8-8.1-25.1-6.6c-15.4,2.6-26.3,15.8-26.6,30.9
		c-0.1,0-0.1,0-0.2,0c-17.3,2.9-29,19.2-26.1,36.6c1.5,9.1,6.8,16.7,14,21.4c-0.8,3.8-0.9,7.8-0.3,11.9c2.9,17.3,19.2,29,36.6,26.1
		c7.3-1.2,13.6-4.8,18.2-9.9c7,7.4,17.4,11.2,28.2,9.4c1.7-0.3,3.4-0.7,4.9-1.2c5.7,2.8,12.3,3.8,19,2.7c11-1.8,19.7-9,23.8-18.5
		c3.4,0.6,6.9,0.6,10.5,0c17.3-2.9,29-19.2,26.1-36.6c-0.3-1.7-0.7-3.4-1.3-5.1C4325.7,861.6,4329.6,851.1,4327.8,840.4z"/>
	<path fill="#B0B129" d="M4736.9,843.6c0.2-1.3,0.3-2.7,0.3-4c0-13.6-11-24.6-24.6-24.6c-2.8,0-5.5,0.5-8,1.3
		c-4.4-6.7-12-11.1-20.6-11.1c-5.3,0-10.2,1.7-14.2,4.5c-1.3-0.2-2.6-0.3-3.9-0.3c-1.5,0-3,0.1-4.4,0.4c-3.1-2.8-7.2-4.5-11.8-4.5
		c-7,0-13,4-15.9,9.9c-1.1-0.2-2.3-0.3-3.4-0.3c-13.6,0-24.6,11-24.6,24.6c0,3.2,0.6,6.2,1.7,9c-4.9,4.5-8,11-8,18.1
		c0,13.6,11,24.6,24.6,24.6c0.1,0,0.1,0,0.2,0c2.1,11.5,12.1,20.2,24.2,20.2c7.3,0,13.8-3.2,18.3-8.2c4.2,7.4,12.2,12.4,21.4,12.4
		c7.6,0,14.5-3.5,19-9c1.7,0.4,3.5,0.6,5.4,0.6c13.1,0,23.9-10.3,24.6-23.3c6.3-4.5,10.5-11.8,10.5-20.1
		C4747.7,855.5,4743.4,848,4736.9,843.6z"/>
	<path fill="#B0B129" d="M3809.8,903.5c0.3,1.3,0.7,2.6,1.2,3.8c5.3,12.5,19.7,18.4,32.2,13.2c2.6-1.1,4.9-2.6,6.9-4.3
		c6.6,4.5,15.3,5.6,23.2,2.3c4.9-2,8.7-5.5,11.3-9.6c1.3-0.3,2.5-0.7,3.8-1.2c1.4-0.6,2.7-1.3,3.9-2.1c4,1.4,8.4,1.3,12.6-0.4
		c6.4-2.7,10.4-8.8,10.8-15.3c1.1-0.3,2.2-0.6,3.3-1.1c12.5-5.3,18.4-19.7,13.2-32.2c-1.2-2.9-3-5.5-5.1-7.7
		c2.8-6,3.1-13.2,0.4-19.8c-5.3-12.5-19.7-18.4-32.2-13.2c-0.1,0-0.1,0-0.2,0.1c-6.4-9.8-19-14-30.1-9.3
		c-6.7,2.8-11.5,8.3-13.7,14.7c-6.8-5.2-16.1-6.7-24.5-3.2c-7.1,3-12,8.8-14.1,15.6c-1.7,0.3-3.5,0.8-5.2,1.5
		c-12.1,5.1-18,18.7-13.7,31c-4.1,6.6-5.1,14.9-1.9,22.6C3795.2,896.7,3802,901.9,3809.8,903.5z"/>
	<path fill="#B0B129" d="M3718.5,892.7c-0.8-9.9-6.4-18.2-14.4-22.9c-2.1-15.3-15.8-26.5-31.4-25.3c-2.2,0.2-4.3,0.6-6.3,1.2
		c-5.9-6.1-14.3-9.5-23.4-8.8c-10.9,0.9-19.9,7.6-24.2,16.8c-5.8-5.5-13.9-8.7-22.6-8c-14.4,1.2-25.5,12.5-26.8,26.3
		c-0.1,0-0.1,0-0.2,0c-16.1,1.3-28.2,15.5-26.9,31.6c0.7,8.5,5,15.9,11.2,20.8c-1,3.4-1.5,7.1-1.2,10.9
		c1.3,16.1,15.5,28.2,31.6,26.9c6.8-0.6,12.8-3.4,17.5-7.7c5.9,7.3,15.2,11.7,25.2,10.9c1.6-0.1,3.1-0.4,4.6-0.8c5,3,11,4.5,17.3,4
		c10.2-0.8,18.8-6.8,23.4-15.2c3.1,0.8,6.3,1.1,9.6,0.8c16.1-1.3,28.2-15.5,26.9-31.6c-0.1-1.6-0.4-3.2-0.8-4.7
		C3714.9,912,3719.3,902.7,3718.5,892.7z"/>
</g>
</svg>
