<?xml version="1.0" encoding="utf-8"?>
<!-- Generator: Adobe Illustrator 18.0.0, SVG Export Plug-In . SVG Version: 6.00 Build 0)  -->
<!DOCTYPE svg PUBLIC "-//W3C//DTD SVG 1.1//EN" "http://www.w3.org/Graphics/SVG/1.1/DTD/svg11.dtd">
<svg version="1.1" id="Layer_1" xmlns="http://www.w3.org/2000/svg" xmlns:xlink="http://www.w3.org/1999/xlink" x="0px" y="0px"
	 viewBox="0 0 250 250" enable-background="new 0 0 250 250" xml:space="preserve">
<g>
	<g>
		<g>
			<rect x="75.7" y="167.4" fill="#FFFFFF" width="70.6" height="24.7"/>
			<path d="M146.2,194.6H75.7c-1.4,0-2.5-1.1-2.5-2.5v-24.7c0-1.4,1.1-2.5,2.5-2.5h70.6c1.4,0,2.5,1.1,2.5,2.5v24.7
				C148.8,193.5,147.6,194.6,146.2,194.6z M78.2,189.6h65.5v-19.7H78.2V189.6z"/>
		</g>
		<g>
			<polygon fill="#FFFFFF" points="162,197.2 60,197.2 71.8,188.3 150.1,188.3 			"/>
			<path d="M162,199.7C162,199.7,162,199.7,162,199.7H60c-1.1,0-2-0.7-2.4-1.7c-0.3-1,0-2.2,0.9-2.8l11.8-8.9c0.4-0.3,1-0.5,1.5-0.5
				h78.3c0.5,0,1.1,0.2,1.5,0.5l11.6,8.7c0.7,0.4,1.2,1.2,1.2,2.2C164.5,198.5,163.4,199.7,162,199.7z M67.5,194.6h87l-5.1-3.9H72.6
				L67.5,194.6z"/>
		</g>
		<g>
			<path fill="#FFFFFF" d="M209.4,179.5H12.5c-5.5,0-10-4.5-10-10V46.1c0-5.5,4.5-10,10-10h196.9c5.5,0,10,4.5,10,10v123.4
				C219.4,175,214.9,179.5,209.4,179.5z"/>
			<path d="M206.8,182H15.1C6.8,182,0,175.3,0,166.9V48.6c0-8.3,6.8-15.1,15.1-15.1h191.7c8.3,0,15.1,6.8,15.1,15.1v118.3
				C221.9,175.3,215.2,182,206.8,182z M15.1,38.6C9.5,38.6,5,43.1,5,48.6v118.3c0,5.5,4.5,10.1,10.1,10.1h191.7
				c5.5,0,10.1-4.5,10.1-10.1V48.6c0-5.5-4.5-10.1-10.1-10.1H15.1z"/>
		</g>
		<g>
			<path fill="#FFFFFF" d="M208,165c0,0.6-0.4,1-1,1H16c-0.6,0-1-0.4-1-1V47c0-0.6,0.4-1,1-1h191c0.6,0,1,0.4,1,1V165z"/>
			<path d="M210,165.2c0,2.1-1.7,3.8-3.8,3.8H15.8c-2.1,0-3.8-1.7-3.8-3.8V47.8c0-2.1,1.7-3.8,3.8-3.8h190.5c2.1,0,3.8,1.7,3.8,3.8
				V165.2z M17,166h187V49H17V166z"/>
		</g>
		<g>
			<g>
				<line fill="#FFFFFF" x1="102.1" y1="141.1" x2="119.9" y2="74.8"/>
				<path fill="#EB0029" d="M102.1,146.1c-0.4,0-0.9-0.1-1.3-0.2c-2.7-0.7-4.3-3.5-3.6-6.2L115,73.5c0.7-2.7,3.5-4.3,6.2-3.6
					c2.7,0.7,4.3,3.5,3.6,6.2l-17.8,66.3C106.3,144.6,104.3,146.1,102.1,146.1z"/>
			</g>
			<g>
				<polyline fill="#FFFFFF" points="88.5,133.7 45,107.9 88.5,82.2 				"/>
				<path fill="#EB0029" d="M88.5,138.7c-0.9,0-1.8-0.2-2.6-0.7l-43.5-25.7c-1.5-0.9-2.5-2.6-2.5-4.3c0-1.8,0.9-3.4,2.5-4.3L86,77.8
					c2.4-1.4,5.5-0.6,6.9,1.8c1.4,2.4,0.6,5.5-1.8,6.9l-36.2,21.4l36.2,21.4c2.4,1.4,3.2,4.5,1.8,6.9
					C91.9,137.8,90.2,138.7,88.5,138.7z"/>
			</g>
			<g>
				<polyline fill="#FFFFFF" points="133.4,82.2 177,107.9 133.4,133.7 				"/>
				<path fill="#EB0029" d="M133.4,138.7c-1.7,0-3.4-0.9-4.3-2.5c-1.4-2.4-0.6-5.5,1.8-6.9l36.2-21.4l-36.2-21.4
					c-2.4-1.4-3.2-4.5-1.8-6.9c1.4-2.4,4.5-3.2,6.9-1.8l43.5,25.7c1.5,0.9,2.5,2.6,2.5,4.3c0,1.8-0.9,3.4-2.5,4.3L136,138
					C135.2,138.5,134.3,138.7,133.4,138.7z"/>
			</g>
		</g>
	</g>
	<g>
		<g>
			<path fill="#FFFFFF" d="M175.8,203.9v-97.8c0-5.5,4.5-10,10-10h51.7c5.5,0,10,4.5,10,10v97.8c0,5.5-4.5,10-10,10h-51.7
				C180.2,213.9,175.8,209.5,175.8,203.9z"/>
			<path d="M234.9,216.4h-46.6c-8.3,0-15.1-6.8-15.1-15.1v-92.6c0-8.3,6.8-15.1,15.1-15.1h46.6c8.3,0,15.1,6.8,15.1,15.1v92.6
				C250,209.7,243.2,216.4,234.9,216.4z M188.3,98.7c-5.5,0-10.1,4.5-10.1,10.1v92.6c0,5.5,4.5,10.1,10.1,10.1h46.6
				c5.5,0,10.1-4.5,10.1-10.1v-92.6c0-5.5-4.5-10.1-10.1-10.1H188.3z"/>
		</g>
		<g>
			<rect x="187.5" y="114.1" fill="#FFFFFF" width="48.3" height="76.4"/>
			<path d="M235.8,193.1h-48.3c-1.4,0-2.5-1.1-2.5-2.5v-76.4c0-1.4,1.1-2.5,2.5-2.5h48.3c1.4,0,2.5,1.1,2.5,2.5v76.4
				C238.3,192,237.2,193.1,235.8,193.1z M190,188.1h43.3v-71.4H190V188.1z"/>
		</g>
		<g>
			<line fill="#FFFFFF" x1="204" y1="104" x2="220" y2="104"/>
			<path d="M218.9,108h-13.8c-1.4,0-2.5-1.6-2.5-3s1.1-3,2.5-3h13.8c1.4,0,2.5,1.6,2.5,3S220.3,108,218.9,108z"/>
		</g>
		<g>
			<circle cx="211.6" cy="203" r="5.7"/>
		</g>
		<g>
			<g>
				<line fill="#FFFFFF" x1="209.6" y1="161.5" x2="213.7" y2="146.3"/>
				<path fill="#EB0029" d="M209.6,164c-0.2,0-0.4,0-0.7-0.1c-1.3-0.4-2.1-1.7-1.8-3.1l4.1-15.1c0.4-1.3,1.7-2.1,3.1-1.8
					c1.3,0.4,2.1,1.7,1.8,3.1l-4.1,15.1C211.7,163.2,210.7,164,209.6,164z"/>
			</g>
			<g>
				<polyline fill="#FFFFFF" points="204,159.8 194.1,153.9 204,148 				"/>
				<path fill="#EB0029" d="M204,162.3c-0.4,0-0.9-0.1-1.3-0.4l-9.9-5.9c-0.8-0.5-1.2-1.3-1.2-2.2c0-0.9,0.5-1.7,1.2-2.2l9.9-5.9
					c1.2-0.7,2.7-0.3,3.4,0.9c0.7,1.2,0.3,2.7-0.9,3.4l-6.3,3.7l6.3,3.7c1.2,0.7,1.6,2.3,0.9,3.4C205.7,161.8,204.9,162.3,204,162.3
					z"/>
			</g>
			<g>
				<polyline fill="#FFFFFF" points="219.2,148 229.1,153.9 219.2,159.8 				"/>
				<path fill="#EB0029" d="M219.2,162.3c-0.9,0-1.7-0.4-2.2-1.2c-0.7-1.2-0.3-2.7,0.9-3.4l6.3-3.7l-6.3-3.7
					c-1.2-0.7-1.6-2.3-0.9-3.4c0.7-1.2,2.2-1.6,3.4-0.9l9.9,5.9c0.8,0.5,1.2,1.3,1.2,2.2c0,0.9-0.5,1.7-1.2,2.2l-9.9,5.9
					C220.1,162.2,219.6,162.3,219.2,162.3z"/>
			</g>
		</g>
	</g>
</g>
</svg>
